<?xml version="1.0" encoding="UTF-8"?>
<!DOCTYPE svg PUBLIC "-//W3C//DTD SVG 1.1//EN" "http://www.w3.org/Graphics/SVG/1.1/DTD/svg11.dtd">
<!-- Creator: CorelDRAW 2017 -->
<svg xmlns="http://www.w3.org/2000/svg" xml:space="preserve" width="43.2136mm" height="43.216mm" version="1.1" style="shape-rendering:geometricPrecision; text-rendering:geometricPrecision; image-rendering:optimizeQuality; fill-rule:evenodd; clip-rule:evenodd"
viewBox="0 0 83.63 83.63"
 xmlns:xlink="http://www.w3.org/1999/xlink">
 <defs>
  <style type="text/css">
   <![CDATA[
    .fil0 {fill:#fb711d;fill-rule:nonzero}
   ]]>
  </style>
 </defs>
 <g id="Слой_x0020_1">
  <metadata id="CorelCorpID_0Corel-Layer"/>
  <path class="fil0" d="M82.52 41.82l-1.11 0c0,10.94 -4.43,20.83 -11.61,28 -7.17,7.17 -17.06,11.6 -28,11.6 -10.94,0 -20.83,-4.43 -28,-11.6 -7.17,-7.17 -11.6,-17.06 -11.6,-28 0,-10.94 4.43,-20.83 11.6,-28 7.17,-7.17 17.06,-11.6 28,-11.6 10.94,0 20.83,4.43 28,11.6 7.18,7.17 11.61,17.06 11.61,28l2.22 0c0,-23.1 -18.72,-41.82 -41.82,-41.82 -23.09,0 -41.81,18.72 -41.81,41.82 0,23.1 18.72,41.82 41.81,41.82 23.1,-0 41.82,-18.72 41.82,-41.82l-1.11 0z"/>
  <path class="fil0" d="M41.81 75.41l0 -1.11c-8.95,-0 -17.06,-3.64 -22.95,-9.52 -5.88,-5.89 -9.53,-14 -9.53,-22.96 0,-8.96 3.65,-17.07 9.53,-22.96 5.89,-5.88 14,-9.52 22.95,-9.52 8.96,0 17.07,3.64 22.95,9.52 5.89,5.89 9.53,14 9.53,22.96 0,8.96 -3.64,17.07 -9.53,22.96 -5.88,5.88 -13.99,9.52 -22.95,9.52l0 2.22c19.14,-0 34.7,-15.56 34.7,-34.7 0,-19.14 -15.56,-34.7 -34.7,-34.7 -19.14,0 -34.69,15.56 -34.69,34.7 0,19.14 15.55,34.7 34.69,34.7l0 -1.11z"/>
  <path class="fil0" d="M40.7 18.91l0 19.58c0,0.61 0.49,1.11 1.11,1.11 0.61,0 1.11,-0.5 1.11,-1.11l0 -19.58c0,-0.61 -0.49,-1.11 -1.11,-1.11 -0.61,0 -1.11,0.5 -1.11,1.11z"/>
  <path class="fil0" d="M40.7 8.23l0 6.67c0,0.61 0.49,1.11 1.11,1.11 0.61,0 1.11,-0.5 1.11,-1.11l0 -6.67c0,-0.61 -0.49,-1.11 -1.11,-1.11 -0.61,0 -1.11,0.5 -1.11,1.11z"/>
  <path class="fil0" d="M8.22 42.93l6.67 0c0.61,0 1.12,-0.5 1.12,-1.11 0,-0.61 -0.5,-1.11 -1.12,-1.11l-6.67 0c-0.61,0 -1.1,0.5 -1.1,1.11 0,0.61 0.48,1.11 1.1,1.11z"/>
  <path class="fil0" d="M42.92 75.41l0 -6.67c0,-0.61 -0.49,-1.11 -1.11,-1.11 -0.61,0 -1.11,0.5 -1.11,1.11l0 6.67c0,0.61 0.49,1.11 1.11,1.11 0.61,0 1.11,-0.5 1.11,-1.11z"/>
  <path class="fil0" d="M75.4 40.71l-6.67 0c-0.61,0 -1.11,0.5 -1.11,1.11 0,0.61 0.49,1.11 1.11,1.11l6.67 0c0.61,0 1.11,-0.5 1.11,-1.11 0,-0.61 -0.49,-1.11 -1.11,-1.11z"/>
  <path class="fil0" d="M18.46 20.03l2.35 2.36c0.44,0.43 1.14,0.43 1.57,0 0.44,-0.43 0.44,-1.13 0,-1.57l-2.35 -2.36c-0.44,-0.43 -1.14,-0.43 -1.57,0 -0.44,0.43 -0.44,1.14 0,1.57z"/>
  <path class="fil0" d="M20.03 65.17l2.35 -2.36c0.44,-0.43 0.44,-1.14 0,-1.57 -0.43,-0.43 -1.14,-0.43 -1.57,0l-2.35 2.36c-0.44,0.43 -0.44,1.13 0,1.57 0.43,0.43 1.14,0.43 1.57,0z"/>
  <path class="fil0" d="M65.17 63.61l-2.36 -2.36c-0.43,-0.43 -1.14,-0.43 -1.56,0 -0.44,0.43 -0.44,1.14 0,1.57l2.35 2.36c0.44,0.43 1.14,0.43 1.57,0 0.43,-0.43 0.43,-1.14 0,-1.57z"/>
  <path class="fil0" d="M63.6 18.46l-2.35 2.36c-0.44,0.43 -0.44,1.14 0,1.57 0.43,0.43 1.14,0.43 1.56,0l2.36 -2.36c0.43,-0.43 0.43,-1.13 0,-1.57 -0.44,-0.43 -1.14,-0.43 -1.57,0z"/>
  <path class="fil0" d="M57.48 55.48l-12.5 -12.14c-0.45,-0.43 -1.14,-0.42 -1.57,0.02 -0.43,0.44 -0.42,1.14 0.03,1.57l12.51 12.14c0.44,0.43 1.14,0.42 1.56,-0.02 0.43,-0.44 0.41,-1.14 -0.03,-1.57z"/>
  <path class="fil0" d="M45.15 41.82l-1.12 0c0,0.62 -0.24,1.17 -0.64,1.57 -0.41,0.41 -0.96,0.65 -1.58,0.65 -0.61,0 -1.16,-0.25 -1.57,-0.65 -0.4,-0.41 -0.65,-0.96 -0.65,-1.57 0,-0.62 0.25,-1.17 0.65,-1.58 0.41,-0.4 0.96,-0.65 1.57,-0.65 0.62,0 1.17,0.25 1.58,0.65 0.4,0.41 0.64,0.96 0.64,1.58l2.22 0c0,-2.46 -1.99,-4.45 -4.45,-4.45 -2.46,0 -4.44,1.99 -4.44,4.45 0,2.46 1.98,4.44 4.44,4.45 2.46,-0 4.45,-1.99 4.45,-4.45l-1.11 0z"/>
 </g>
</svg>
