<?xml version="1.0" encoding="UTF-8"?>
<!DOCTYPE svg PUBLIC "-//W3C//DTD SVG 1.1//EN" "http://www.w3.org/Graphics/SVG/1.1/DTD/svg11.dtd">
<!-- Creator: CorelDRAW 2017 -->
<svg xmlns="http://www.w3.org/2000/svg" xml:space="preserve" width="34.9376mm" height="34.9373mm" version="1.1" style="shape-rendering:geometricPrecision; text-rendering:geometricPrecision; image-rendering:optimizeQuality; fill-rule:evenodd; clip-rule:evenodd"
viewBox="0 0 908.53 908.53"
 xmlns:xlink="http://www.w3.org/1999/xlink">
 <defs>
  <style type="text/css">
   <![CDATA[
    .fil1 {fill:#2d2d2d}
    .fil0 {fill:#2d2d2d;fill-rule:nonzero}
   ]]>
  </style>
 </defs>
 <g id="Слой_x0020_1">
  <metadata id="CorelCorpID_0Corel-Layer"/>
  <path class="fil0" d="M454.26 0c125.51,0 238.96,50.8 321.21,133.06 82.25,82.25 133.06,195.69 133.06,321.2 0,125.51 -50.81,238.95 -133.06,321.2 -82.25,82.26 -195.7,133.06 -321.21,133.06 -125.51,0 -238.95,-50.8 -321.2,-133.06 -82.25,-82.25 -133.06,-195.69 -133.06,-321.2 0,-125.51 50.81,-238.95 133.06,-321.2 82.25,-82.26 195.69,-133.06 321.2,-133.06zm296.31 158.21l0 0c-75.96,-75.71 -180.6,-122.75 -296.31,-122.75 -115.7,0 -220.34,47.04 -296.05,122.75 -75.71,75.71 -122.75,180.35 -122.75,296.05 0,115.71 47.03,220.34 122.75,296.3 75.71,75.71 180.35,122.5 296.05,122.5 115.7,0 220.35,-46.78 296.31,-122.5 75.71,-75.96 122.5,-180.6 122.5,-296.3 0,-115.7 -46.79,-220.34 -122.5,-296.05z"/>
  <path class="fil1" d="M488.98 361.45l0 -37.23c0,-17.86 11.82,-22.13 20.38,-22.13 8.3,0 52.06,0 52.06,0l0 -79.49 -71.69 0c-79.73,0 -97.59,58.86 -97.59,97.09l0 41.75 -46.29 0 0 56.09 0 36.73 46.78 0c0,105.39 0,231.92 0,231.92l92.82 0c0,0 0,-128.29 0,-231.92l68.66 0 3.02 -36.47 5.53 -56.35 -73.7 0z"/>
 </g>
</svg>
