<?xml version="1.0" encoding="UTF-8"?>
<!DOCTYPE svg PUBLIC "-//W3C//DTD SVG 1.1//EN" "http://www.w3.org/Graphics/SVG/1.1/DTD/svg11.dtd">
<!-- Creator: CorelDRAW 2017 -->
<svg xmlns="http://www.w3.org/2000/svg" xml:space="preserve" width="34.9377mm" height="34.9373mm" version="1.1" style="shape-rendering:geometricPrecision; text-rendering:geometricPrecision; image-rendering:optimizeQuality; fill-rule:evenodd; clip-rule:evenodd"
viewBox="0 0 2682.76 2682.72"
 xmlns:xlink="http://www.w3.org/1999/xlink">
 <defs>
  <style type="text/css">
   <![CDATA[
    .fil1 {fill:#2d2d2d}
    .fil0 {fill:#2d2d2d;fill-rule:nonzero}
   ]]>
  </style>
 </defs>
 <g id="Слой_x0020_1">
  <metadata id="CorelCorpID_0Corel-Layer"/>
  <path class="fil0" d="M1341.37 0c370.62,0 706.33,150 948.46,392.9 242.88,242.88 392.92,577.84 392.92,948.46 0,370.61 -150.03,705.59 -392.92,948.46 -242.13,242.89 -577.84,392.9 -948.46,392.9 -369.87,0 -705.57,-150.01 -948.46,-392.9 -242.89,-242.87 -392.92,-577.84 -392.92,-948.46 0,-370.62 150.03,-705.58 392.92,-948.46 242.88,-242.9 578.58,-392.9 948.46,-392.9zm874.95 467.17l0 0c-224.31,-223.56 -533.28,-362.47 -874.95,-362.47 -340.9,0 -650.63,138.91 -874.18,362.47 -223.58,223.56 -362.46,532.54 -362.46,874.2 0,341.66 138.88,650.63 362.46,874.93 223.55,223.57 533.28,361.71 874.18,361.71 341.67,0 650.64,-138.14 874.95,-361.71 223.56,-224.3 361.7,-533.27 361.7,-874.93 0,-341.66 -138.14,-650.64 -361.7,-874.2z"/>
  <path class="fil1" d="M998.23 1341.37c0,-189.4 153.75,-343.89 343.14,-343.89 190.15,0 343.89,154.49 343.89,343.89 0,190.12 -153.73,343.88 -343.89,343.88 -189.39,0 -343.14,-153.77 -343.14,-343.88zm698.18 -672.17l0 0 -709.3 0c-174.54,0 -317.9,142.59 -317.9,317.9l0 709.3c0,174.51 143.35,317.87 317.9,317.87l709.3 0c175.28,0 317.88,-143.35 317.88,-317.87l0 -709.3c0,-175.31 -142.6,-317.9 -317.88,-317.9zm-709.3 79.48l0 0 709.3 0c131.47,0 238.42,106.93 238.42,238.42l0 709.3c0,131.45 -106.94,238.39 -238.42,238.39l-709.3 0c-131.49,0 -238.43,-106.94 -238.43,-238.39l0 -709.3c0,-131.49 106.94,-238.42 238.43,-238.42zm779.85 100.26l0 0c-38.62,0 -69.81,31.19 -69.81,69.8 0,38.63 31.18,69.82 69.81,69.82 38.62,0 69.83,-31.19 69.83,-69.82 0,-38.61 -31.21,-69.8 -69.83,-69.8zm8.16 492.43l0 0c0,-239.17 -193.84,-433.75 -433.75,-433.75 -239.17,0 -433.75,194.59 -433.75,433.75 0,239.91 194.58,433.76 433.75,433.76 239.91,0 433.75,-193.86 433.75,-433.76z"/>
 </g>
</svg>
