<?xml version="1.0" encoding="UTF-8"?>
<!DOCTYPE svg PUBLIC "-//W3C//DTD SVG 1.1//EN" "http://www.w3.org/Graphics/SVG/1.1/DTD/svg11.dtd">
<!-- Creator: CorelDRAW 2017 -->
<svg xmlns="http://www.w3.org/2000/svg" xml:space="preserve" width="45.5751mm" height="41.3951mm" version="1.1" style="shape-rendering:geometricPrecision; text-rendering:geometricPrecision; image-rendering:optimizeQuality; fill-rule:evenodd; clip-rule:evenodd"
viewBox="0 0 88.66 80.53"
 xmlns:xlink="http://www.w3.org/1999/xlink">
 <defs>
  <style type="text/css">
   <![CDATA[
    .fil0 {fill:#fb711d;fill-rule:nonzero}
   ]]>
  </style>
 </defs>
 <g id="Слой_x0020_1">
  <metadata id="CorelCorpID_0Corel-Layer"/>
  <path class="fil0" d="M78.97 21.67c4.58,4.58 7.4,10.88 7.4,17.84 0,6.96 -2.83,13.26 -7.4,17.84 -0.44,0.44 -0.44,1.16 0,1.61 0.45,0.44 1.17,0.44 1.61,0 4.99,-4.98 8.07,-11.86 8.07,-19.44 0,-7.58 -3.09,-14.47 -8.07,-19.44 -0.44,-0.45 -1.16,-0.45 -1.61,0 -0.44,0.45 -0.44,1.16 0,1.61z"/>
  <path class="fil0" d="M9.66 57.34c-4.57,-4.58 -7.4,-10.88 -7.4,-17.84 0,-6.96 2.83,-13.26 7.4,-17.84 0.45,-0.45 0.45,-1.16 0,-1.61 -0.45,-0.45 -1.16,-0.45 -1.61,0 -4.98,4.98 -8.06,11.86 -8.06,19.44 0,7.58 3.08,14.47 8.06,19.44 0.45,0.44 1.16,0.44 1.61,0 0.45,-0.45 0.45,-1.17 0,-1.61z"/>
  <path class="fil0" d="M74.48 26.17c3.41,3.42 5.53,8.13 5.53,13.33 0,5.2 -2.11,9.92 -5.53,13.33 -0.45,0.45 -0.45,1.17 0,1.61 0.44,0.45 1.16,0.45 1.61,0 3.82,-3.82 6.19,-9.11 6.19,-14.94 0,-5.83 -2.38,-11.12 -6.19,-14.95 -0.45,-0.44 -1.17,-0.44 -1.61,0 -0.45,0.45 -0.45,1.17 0,1.61z"/>
  <path class="fil0" d="M14.16 52.84c-3.42,-3.42 -5.54,-8.13 -5.54,-13.33 0,-5.2 2.11,-9.92 5.54,-13.33 0.44,-0.45 0.44,-1.17 0,-1.61 -0.44,-0.44 -1.16,-0.44 -1.61,0 -3.83,3.83 -6.2,9.12 -6.2,14.95 0,5.83 2.38,11.12 6.2,14.94 0.45,0.45 1.17,0.45 1.61,0 0.44,-0.44 0.44,-1.16 0,-1.61z"/>
  <path class="fil0" d="M69.98 30.67c2.26,2.27 3.66,5.39 3.66,8.84 0,3.44 -1.39,6.57 -3.66,8.83 -0.45,0.45 -0.45,1.17 0,1.61 0.44,0.44 1.16,0.44 1.6,0 2.68,-2.68 4.34,-6.38 4.34,-10.45 0,-4.08 -1.67,-7.77 -4.34,-10.44 -0.44,-0.45 -1.16,-0.45 -1.6,0 -0.45,0.45 -0.45,1.16 0,1.61z"/>
  <path class="fil0" d="M18.67 48.34c-2.26,-2.27 -3.67,-5.39 -3.67,-8.83 0,-3.45 1.4,-6.57 3.67,-8.84 0.44,-0.45 0.44,-1.16 0,-1.61 -0.45,-0.45 -1.16,-0.45 -1.61,0 -2.68,2.67 -4.33,6.37 -4.33,10.44 0,4.07 1.66,7.77 4.33,10.45 0.45,0.44 1.16,0.44 1.61,0 0.44,-0.45 0.44,-1.17 0,-1.61z"/>
  <path class="fil0" d="M61.64 79.39l0 -1.13 -34.63 0c-1.06,0 -1.98,-0.43 -2.68,-1.11 -0.69,-0.69 -1.11,-1.63 -1.11,-2.67l0 -68.41c0,-1.05 0.42,-1.99 1.11,-2.68 0.69,-0.69 1.62,-1.1 2.68,-1.1l34.63 0c1.05,0 1.99,0.42 2.68,1.1 0.68,0.69 1.1,1.63 1.1,2.68l0 68.41c0,1.04 -0.42,1.98 -1.1,2.67 -0.68,0.69 -1.63,1.11 -2.68,1.11l0 2.27c3.35,0 6.05,-2.71 6.05,-6.05l0 -68.41c0,-3.35 -2.7,-6.06 -6.05,-6.06l-34.63 0c-3.35,0 -6.05,2.71 -6.05,6.06l0 68.41c0,3.34 2.7,6.05 6.05,6.05l34.63 0 0 -1.14z"/>
  <path class="fil0" d="M60.78 67.97l0 -1.14 -31.77 0 0 -58.41 30.63 0 0 59.55 1.14 0 0 -1.14 0 1.14 1.13 0 0 -60.69c0,-0.3 -0.12,-0.6 -0.33,-0.8 -0.22,-0.21 -0.51,-0.34 -0.8,-0.34l-32.91 0c-0.3,0 -0.6,0.12 -0.8,0.34 -0.22,0.21 -0.34,0.5 -0.34,0.8l0 60.69c0,0.29 0.12,0.59 0.34,0.8 0.21,0.21 0.51,0.33 0.8,0.33l32.91 0c0.3,0 0.59,-0.12 0.8,-0.33 0.21,-0.21 0.33,-0.51 0.33,-0.8l-1.13 0z"/>
  <path class="fil0" d="M48.68 74.47l-1.14 0c0,1 -0.8,1.81 -1.81,1.81 -1,0 -1.82,-0.81 -1.82,-1.81 0,-1 0.81,-1.81 1.82,-1.81 1,0 1.81,0.81 1.81,1.81l2.28 0c0,-2.26 -1.83,-4.08 -4.09,-4.08 -2.26,0 -4.09,1.83 -4.09,4.08 0,2.26 1.82,4.08 4.09,4.08 2.25,0 4.09,-1.83 4.09,-4.08l-1.14 0z"/>
 </g>
</svg>
