<?xml version="1.0" encoding="UTF-8"?>
<!DOCTYPE svg PUBLIC "-//W3C//DTD SVG 1.1//EN" "http://www.w3.org/Graphics/SVG/1.1/DTD/svg11.dtd">
<!-- Creator: CorelDRAW 2017 -->
<svg xmlns="http://www.w3.org/2000/svg" xml:space="preserve" width="16.115mm" height="16.115mm" version="1.1" style="shape-rendering:geometricPrecision; text-rendering:geometricPrecision; image-rendering:optimizeQuality; fill-rule:evenodd; clip-rule:evenodd"
viewBox="0 0 9.24 9.24"
 xmlns:xlink="http://www.w3.org/1999/xlink">
 <defs>
  <style type="text/css">
   <![CDATA[
    .fil0 {fill:#ED6E1E;fill-rule:nonzero}
   ]]>
  </style>
 </defs>
 <g id="Слой_x0020_1">
  <metadata id="CorelCorpID_0Corel-Layer"/>
  <path class="fil0" d="M2.08 0l5.07 0c0.57,0 1.09,0.23 1.47,0.61 0.38,0.38 0.61,0.9 0.61,1.47l0 5.07c0,0.57 -0.23,1.09 -0.61,1.47 -0.38,0.38 -0.9,0.61 -1.47,0.61l-5.07 0c-0.57,0 -1.09,-0.23 -1.47,-0.61 -0.38,-0.38 -0.61,-0.9 -0.61,-1.47l0 -5.07c0,-0.57 0.23,-1.09 0.61,-1.47 0.38,-0.38 0.9,-0.61 1.47,-0.61zm5.07 0.29l-5.07 0c-0.49,0 -0.94,0.2 -1.27,0.53 -0.33,0.33 -0.53,0.78 -0.53,1.27l0 5.07c0,0.49 0.2,0.94 0.53,1.27 0.33,0.33 0.78,0.53 1.27,0.53l5.07 0c0.49,0 0.94,-0.2 1.27,-0.53 0.33,-0.33 0.53,-0.78 0.53,-1.27l0 -5.07c0,-0.49 -0.2,-0.94 -0.53,-1.27 -0.33,-0.33 -0.78,-0.53 -1.27,-0.53z"/>
  <path class="fil0" d="M1.96 5.26c-0.11,0.11 -0.29,0.11 -0.41,0 -0.11,-0.11 -0.11,-0.29 0,-0.41l2.49 -2.49c0.17,-0.17 0.39,-0.25 0.61,-0.25 0.22,0 0.44,0.08 0.61,0.25l2.4 2.4c0.11,0.11 0.11,0.29 0,0.41 -0.11,0.11 -0.29,0.11 -0.41,0l-2.4 -2.4c-0.06,-0.06 -0.13,-0.09 -0.21,-0.09 -0.08,0 -0.15,0.03 -0.21,0.09l-2.49 2.49z"/>
  <path class="fil0" d="M1.96 6.78c-0.11,0.11 -0.29,0.11 -0.41,0 -0.11,-0.11 -0.11,-0.29 0,-0.41l2.49 -2.49c0.17,-0.17 0.39,-0.25 0.61,-0.25 0.22,0 0.44,0.08 0.61,0.25l2.4 2.4c0.11,0.11 0.11,0.29 0,0.41 -0.11,0.11 -0.29,0.11 -0.41,0l-2.4 -2.4c-0.06,-0.06 -0.13,-0.09 -0.21,-0.09 -0.08,0 -0.15,0.03 -0.21,0.09l-2.49 2.49z"/>
 </g>
</svg>
