<?xml version="1.0" encoding="UTF-8"?>
<!DOCTYPE svg PUBLIC "-//W3C//DTD SVG 1.1//EN" "http://www.w3.org/Graphics/SVG/1.1/DTD/svg11.dtd">
<!-- Creator: CorelDRAW 2017 -->
<svg xmlns="http://www.w3.org/2000/svg" xml:space="preserve" width="34.9473mm" height="34.9377mm" version="1.1" style="shape-rendering:geometricPrecision; text-rendering:geometricPrecision; image-rendering:optimizeQuality; fill-rule:evenodd; clip-rule:evenodd"
viewBox="0 0 2817.1 2816.33"
 xmlns:xlink="http://www.w3.org/1999/xlink">
 <defs>
  <style type="text/css">
   <![CDATA[
    .fil1 {fill:#2d2d2d}
    .fil0 {fill:#2d2d2d;fill-rule:nonzero}
   ]]>
  </style>
 </defs>
 <g id="Слой_x0020_1">
  <metadata id="CorelCorpID_0Corel-Layer"/>
  <path class="fil0" d="M1408.94 0c388.29,0 740.7,157.54 995.68,412.45 254.19,254.99 412.48,607.4 412.48,995.7 0,389.1 -158.29,740.73 -412.48,995.72 -254.98,254.94 -607.39,412.46 -995.68,412.46 -389.07,0 -741.51,-157.51 -996.47,-412.46 -254.21,-254.99 -412.47,-606.62 -412.47,-995.72 0,-388.3 158.26,-740.71 412.47,-995.7 254.95,-254.9 607.4,-412.45 996.47,-412.45zm917.7 490.46l0 0c-234.68,-234.7 -559.84,-380.52 -917.7,-380.52 -358.67,0 -683.82,145.82 -918.51,380.52 -234.7,234.69 -379.71,559.05 -379.71,917.69 0,358.69 145.02,683.02 379.71,918.49 234.69,234.69 559.84,379.74 918.51,379.74 357.87,0 683.02,-145.05 917.7,-379.74 234.7,-235.47 380.51,-559.8 380.51,-918.49 0,-358.63 -145.81,-683 -380.51,-917.69z"/>
  <path class="fil1" d="M1523.54 924.77c-31.17,-3.94 -70.94,-17.19 -77.96,24.13 -7.79,42.88 36.63,39.8 65.49,46.02 196.5,42.9 263.56,113.02 296.3,303.34 1.53,7.81 2.35,17.92 2.35,26.5 2.34,22.6 7.79,42.85 42.09,36.65 17.16,-2.35 23.39,-11.69 24.17,-24.93 2.35,-11.72 0,-27.33 1.56,-38.22 0.78,-183.28 -159.07,-349.36 -354.01,-373.49zm17.95 150.47l0 0c-20.27,0 -40.56,2.33 -48.35,24.19 -11.7,31.18 12.49,39.73 36.63,43.63 80.33,11.72 122.45,58.51 131.01,136.46 0.78,10.91 4.7,19.49 9.36,26.55 7.03,7.71 15.6,10.88 26.51,10.11 7.01,0 12.47,-2.39 17.14,-4.7 13.28,-10.13 15.61,-28.85 14.05,-48.35 1.56,-88.06 -99.81,-190.26 -186.35,-187.89zm407 617.51l0 0c-39.76,-31.21 -83.44,-59.26 -123.97,-88.11 -83.42,-56.15 -159.84,-60.76 -221.44,30.41 -35.09,51.49 -84.23,53.82 -134.89,31.19 -141.13,-61.59 -249.51,-157.49 -313.44,-298.62 -9.37,-21.83 -15.6,-42.85 -16.39,-62.34 -2.35,-37.44 13.24,-70.15 55.38,-99.04 35.07,-22.6 69.36,-49.9 67.04,-100.59 -3.11,-66.26 -166.88,-286.92 -232.33,-311.11 -26.53,-9.36 -53.04,-7.78 -80.32,0 -152.05,50.66 -214.42,172.34 -154.39,316.56 34.31,81.12 70.96,156.74 114.62,227.67 186.36,311.89 460.8,539.59 814.81,688.49 24.16,10.14 51.46,14.83 66.26,17.94 99.03,1.56 214.42,-92.78 247.96,-184.81 32.74,-89.65 -35.86,-123.95 -88.9,-167.63zm-487.29 -853.73l0 0c317.3,48.29 463.12,196.42 503.67,509.12 0,3.14 0,5.47 0,7.75 2.35,28.86 -3.1,66.32 35.1,66.32 33.53,0.77 35.09,-24.16 35.09,-48.35 -1.56,-8.55 -1.56,-15.58 -1.56,-22.58 3.89,-295.56 -258.86,-569.97 -562.96,-579.36 -24.17,3.89 -70.97,-15.61 -74.85,35.08 -0.81,33.57 38.97,28.85 65.5,32.02z"/>
 </g>
</svg>
