<?xml version="1.0" encoding="UTF-8"?>
<!DOCTYPE svg PUBLIC "-//W3C//DTD SVG 1.1//EN" "http://www.w3.org/Graphics/SVG/1.1/DTD/svg11.dtd">
<!-- Creator: CorelDRAW 2017 -->
<svg xmlns="http://www.w3.org/2000/svg" xml:space="preserve" width="34.9377mm" height="34.947mm" version="1.1" style="shape-rendering:geometricPrecision; text-rendering:geometricPrecision; image-rendering:optimizeQuality; fill-rule:evenodd; clip-rule:evenodd"
viewBox="0 0 552.13 552.28"
 xmlns:xlink="http://www.w3.org/1999/xlink">
 <defs>
  <style type="text/css">
   <![CDATA[
    .fil1 {fill:#2d2d2d}
    .fil0 {fill:#2d2d2d;fill-rule:nonzero}
   ]]>
  </style>
 </defs>
 <g id="Слой_x0020_1">
  <metadata id="CorelCorpID_0Corel-Layer"/>
  <path class="fil0" d="M276.06 0c76.28,0 145.22,31.03 195.2,80.86 49.98,49.99 80.86,119.08 80.86,195.36 0,76.12 -30.89,145.22 -80.86,195.2 -49.99,49.83 -118.92,80.86 -195.2,80.86 -76.28,0 -145.22,-31.03 -195.2,-80.86 -49.98,-49.98 -80.86,-119.08 -80.86,-195.2 0,-76.28 30.88,-145.37 80.86,-195.36 49.99,-49.83 118.92,-80.86 195.2,-80.86zm179.92 96.15l0 0c-46.02,-46.02 -109.61,-74.44 -179.92,-74.44 -70.31,0 -133.9,28.43 -179.92,74.44 -46.15,46.01 -74.59,109.75 -74.59,180.07 0,70.16 28.44,133.9 74.59,179.92 46.02,46.01 109.61,74.59 179.92,74.59 70.31,0 133.9,-28.59 179.92,-74.59 46.16,-46.01 74.58,-109.76 74.58,-179.92 0,-70.32 -28.43,-134.06 -74.58,-180.07z"/>
  <path class="fil1" d="M414.25 217.37c0,0 -2.9,-20.33 -11.31,-29.2 -10.69,-11.62 -22.77,-11.77 -28.12,-12.54 -39.44,-2.9 -98.59,-2.9 -98.59,-2.9l-0.32 0c0,0 -59,0 -98.45,2.9 -5.65,0.77 -17.57,0.92 -28.27,12.54 -8.41,8.87 -11.31,29.2 -11.31,29.2 0,0 -2.91,23.85 -2.91,47.38l0 3.06 0 19.41c0,23.85 2.91,47.39 2.91,47.39 0,0 2.9,20.33 11.31,29.35 10.7,11.77 24.77,11.31 31.18,12.53 22.47,2.29 95.84,3.06 95.84,3.06 0,0 59.15,-0.31 98.59,-3.06 5.35,-0.76 17.43,-0.76 28.12,-12.53 8.42,-9.02 11.31,-29.35 11.31,-29.35 0,0 2.75,-23.55 2.75,-47.39l0 -18.19 0 -4.28c0,-23.54 -2.75,-47.38 -2.75,-47.38zm-91.1 55.64l0 0 -76.28 41.11 0 -63.28 0 -19.26 34.55 18.8 41.73 22.62z"/>
 </g>
</svg>
