<?xml version="1.0" encoding="iso-8859-1"?>
<!-- Generator: Adobe Illustrator 19.0.0, SVG Export Plug-In . SVG Version: 6.00 Build 0)  -->
<svg version="1.1" id="Capa_1" xmlns="http://www.w3.org/2000/svg" xmlns:xlink="http://www.w3.org/1999/xlink" x="0px" y="0px"
	 viewBox="0 0 512 512" style="enable-background:new 0 0 512 512;" xml:space="preserve">
<g>
	<g>
		<path d="M474.513,131.622H348V50c0-27.57-22.43-50-50-50H50C22.43,0,0,22.43,0,50v412c0,27.57,22.43,50,50,50h248
			c27.57,0,50-22.43,50-50v-85.026h126.513c20.671,0,37.487-16.817,37.487-37.487V169.109
			C512,148.439,495.184,131.622,474.513,131.622z M462.101,151.622L462.101,151.622l-20,20H346.96c-5.522,0-10,4.477-10,10
			c0,5.523,4.478,10,10,10h75.141l-51.406,51.406c-15.822,15.822-41.566,15.822-57.389,0l-91.407-91.406H462.101z M290.223,248.231
			l-97.172,97.172c-0.668-1.851-1.051-3.838-1.051-5.916V169.109c0-5.231,2.321-9.921,5.973-13.128L290.223,248.231z M20,50
			c0-16.542,13.458-30,30-30h248c16.542,0,30,13.458,30,30v14H20V50z M328,462c0,16.542-13.458,30-30,30H50
			c-16.542,0-30-13.458-30-30v-4h240.565c5.522,0,10-4.477,10-10s-4.478-10-10-10H20V84h308v47.622H209.487
			c-20.671,0-37.487,16.817-37.487,37.487v170.378c0,20.67,16.816,37.487,37.487,37.487H328V462z M209.766,356.974l20-20H338
			c5.522,0,10-4.477,10-10s-4.478-10-10-10h-88.234l54.928-54.928c21.724,17.009,52.458,17.096,74.274,0.262l94.667,94.666H209.766z
			 M492,339.487c0,2.243-0.44,4.382-1.213,6.355l-97.311-97.31l92.551-92.55c3.652,3.206,5.973,7.896,5.973,13.127V339.487z"/>
	</g>
</g>
<g>
	<g>
		<path d="M298.315,438h-0.096c-5.522,0-9.952,4.477-9.952,10s4.526,10,10.048,10c5.522,0,10-4.477,10-10S303.837,438,298.315,438z"
			/>
	</g>
</g>
<g>
	<g>
		<path d="M386.74,319.9c-1.86-1.86-4.44-2.93-7.07-2.93s-5.21,1.07-7.069,2.93c-1.86,1.87-2.931,4.44-2.931,7.08
			c0,2.63,1.07,5.2,2.931,7.07c1.859,1.86,4.439,2.92,7.069,2.92s5.21-1.06,7.07-2.92c1.86-1.87,2.93-4.44,2.93-7.07
			C389.67,324.34,388.601,321.77,386.74,319.9z"/>
	</g>
</g>
<g>
	<g>
		<path d="M181.07,33.93C179.209,32.07,176.63,31,174,31s-5.21,1.07-7.069,2.93C165.07,35.79,164,38.37,164,41
			c0,2.64,1.07,5.21,2.931,7.07C168.79,49.93,171.37,51,174,51s5.21-1.07,7.07-2.93S184,43.63,184,41S182.931,35.79,181.07,33.93z"
			/>
	</g>
</g>
<g>
</g>
<g>
</g>
<g>
</g>
<g>
</g>
<g>
</g>
<g>
</g>
<g>
</g>
<g>
</g>
<g>
</g>
<g>
</g>
<g>
</g>
<g>
</g>
<g>
</g>
<g>
</g>
<g>
</g>
</svg>
