<?xml version="1.0" encoding="iso-8859-1"?>
<!-- Generator: Adobe Illustrator 19.0.0, SVG Export Plug-In . SVG Version: 6.00 Build 0)  -->
<svg version="1.1" id="Capa_1" xmlns="http://www.w3.org/2000/svg" xmlns:xlink="http://www.w3.org/1999/xlink" x="0px" y="0px"
	 viewBox="0 0 463 463" style="enable-background:new 0 0 463 463;" xml:space="preserve">
<g>
	<path d="M431.5,96h-17.734c-3.138-9.29-11.93-16-22.266-16h-32c-10.336,0-19.128,6.71-22.266,16H311V71.5
		c0-21.78-17.72-39.5-39.5-39.5h-80C169.72,32,152,49.72,152,71.5V96h-26.234c-3.138-9.29-11.93-16-22.266-16h-32
		c-10.336,0-19.128,6.71-22.266,16H31.5C14.131,96,0,110.131,0,127.5v272C0,416.869,14.131,431,31.5,431h400
		c17.369,0,31.5-14.131,31.5-31.5v-272C463,110.131,448.869,96,431.5,96z M359.5,95h32c4.687,0,8.5,3.813,8.5,8.5
		s-3.813,8.5-8.5,8.5h-32c-4.673,0-8.477-3.793-8.498-8.461c0-0.013,0.002-0.026,0.002-0.039s-0.002-0.026-0.002-0.039
		C351.023,98.793,354.827,95,359.5,95z M103.5,127c10.336,0,19.128-6.71,22.266-16h211.469c3.138,9.29,11.93,16,22.266,16h8.5v289
		H95V127H103.5z M167,71.5c0-13.51,10.99-24.5,24.5-24.5h80c13.51,0,24.5,10.99,24.5,24.5V96H167V71.5z M71.5,95h32
		c4.687,0,8.5,3.813,8.5,8.5s-3.813,8.5-8.5,8.5h-32c-4.677,0-8.483-3.798-8.499-8.471c0-0.01,0.001-0.019,0.001-0.029
		s-0.001-0.019-0.001-0.029C63.017,98.798,66.823,95,71.5,95z M15,399.5v-272c0-9.099,7.401-16.5,16.5-16.5h17.734
		c3.138,9.29,11.93,16,22.266,16H80v289H31.5C22.401,416,15,408.599,15,399.5z M448,399.5c0,9.099-7.401,16.5-16.5,16.5H383V127h8.5
		c10.336,0,19.128-6.71,22.266-16H431.5c9.099,0,16.5,7.401,16.5,16.5V399.5z"/>
	<path d="M159.5,303H192v32.5c0,12.958,10.542,23.5,23.5,23.5h32c12.958,0,23.5-10.542,23.5-23.5V303h32.5
		c12.958,0,23.5-10.542,23.5-23.5v-32c0-12.958-10.542-23.5-23.5-23.5H271v-32.5c0-12.958-10.542-23.5-23.5-23.5h-32
		c-12.958,0-23.5,10.542-23.5,23.5V224h-32.5c-12.958,0-23.5,10.542-23.5,23.5v32C136,292.458,146.542,303,159.5,303z M151,247.5
		c0-4.687,3.813-8.5,8.5-8.5h40c4.143,0,7.5-3.357,7.5-7.5v-40c0-4.687,3.813-8.5,8.5-8.5h32c4.687,0,8.5,3.813,8.5,8.5v40
		c0,4.143,3.357,7.5,7.5,7.5h40c4.687,0,8.5,3.813,8.5,8.5v32c0,4.687-3.813,8.5-8.5,8.5h-40c-4.143,0-7.5,3.357-7.5,7.5v40
		c0,4.687-3.813,8.5-8.5,8.5h-32c-4.687,0-8.5-3.813-8.5-8.5v-40c0-4.143-3.357-7.5-7.5-7.5h-40c-4.687,0-8.5-3.813-8.5-8.5V247.5z"
		/>
</g>
<g>
</g>
<g>
</g>
<g>
</g>
<g>
</g>
<g>
</g>
<g>
</g>
<g>
</g>
<g>
</g>
<g>
</g>
<g>
</g>
<g>
</g>
<g>
</g>
<g>
</g>
<g>
</g>
<g>
</g>
</svg>
