<?xml version="1.0" encoding="UTF-8"?>
<!DOCTYPE svg PUBLIC "-//W3C//DTD SVG 1.1//EN" "http://www.w3.org/Graphics/SVG/1.1/DTD/svg11.dtd">
<!-- Creator: CorelDRAW 2017 -->
<svg xmlns="http://www.w3.org/2000/svg" xml:space="preserve" width="718px" height="408px" version="1.1" style="shape-rendering:geometricPrecision; text-rendering:geometricPrecision; image-rendering:optimizeQuality; fill-rule:evenodd; clip-rule:evenodd"
viewBox="0 0 778.5 442.58"
 xmlns:xlink="http://www.w3.org/1999/xlink">
 <defs>
  <style type="text/css">
   <![CDATA[
    .fil0 {fill:#3D3D3D}
   ]]>
  </style>
 </defs>
 <g id="Layer_x0020_1">
  <metadata id="CorelCorpID_0Corel-Layer"/>
  <path class="fil0" d="M632.3 116.69c32.81,-4.21 69.28,14.17 66.14,47.08 -2.69,28.24 -32.7,48.42 -62.72,52.29 -33.22,4.28 -68.96,-13.92 -66.38,-46.82 2.25,-28.68 33.23,-48.73 62.96,-52.55zm-503.56 -0.14c35.21,-4.27 65.45,15.47 76.34,37.16 17.55,34.91 -13.83,59.24 -44.16,62.56 -34.4,3.77 -65.83,-15.86 -76.04,-37.81 -16.11,-34.65 12.72,-58.14 43.86,-61.91zm90.88 -5.99c8.37,1.6 17.02,4.82 26.17,6.73 28.87,6.02 46.37,5.65 76,21.66 73.91,39.92 25.35,132.47 8.41,190.3 -7.13,24.36 -8.05,29.74 -0.1,53.02 2.56,7.49 15.49,44.35 15.38,48.94l-5.71 -0.06c-4.19,-9.69 -22.88,-81.81 -22.86,-91.7 0.03,-15.27 3.45,-36.25 5.09,-52.06 5.6,-54.25 7.49,-43.5 -8.08,-98.19 -17.53,-61.56 -47.7,-42.38 -86.23,-71.11 -4.67,-3.48 -3.77,-2.86 -8.07,-7.53zm213.58 320.58c5.27,-25.9 23.11,-58.22 21.12,-76.53 -3.73,-34.38 -28.52,-79.83 -35.5,-127.41 -10.12,-68.91 32.97,-94 87.12,-105.16 9.1,-1.88 18.49,-2.92 27.71,-4.81 9.21,-1.88 17.38,-4.95 25.89,-6.72 -12.25,19.08 -55.62,23.95 -74.91,41.27 -16.58,14.88 -27.18,61.08 -31.43,84.61 -2.85,15.73 9.68,81.66 8.86,105.28 -0.47,13.4 -15.53,61.99 -20.32,81.78 -1.95,8.02 -0.42,7.73 -8.54,7.69zm-174.74 -351.67c50.81,-48.4 137.09,-63.1 206.75,-35.13 17.45,7 43.62,21.33 54.95,34.79 -2.89,2.34 -13.56,2.47 -17.06,2.64 -6.04,0.3 -12.41,0.27 -18.44,-0.07 -40.18,-2.28 -72.54,-18.03 -95.45,-17.89 -18.08,0.12 -44.14,9.81 -62.44,13.52 -13.46,2.72 -57.05,8.04 -68.31,2.14zm-191.4 78.69c-11.25,-5.1 -32.82,-32.48 -39.96,-44.48 -25.55,-42.96 -19.63,-91.98 40.55,-100.11 26.06,-3.53 49.09,5.81 66.13,17.29 37.05,24.93 55.34,46.71 109.69,59.42 24.87,5.82 52.47,5.65 77.91,1.16 18.54,-3.27 52.52,-15.11 68.93,-14.81 12.25,0.23 49.14,11.77 69.73,15.25 60.93,10.28 115.66,-7.79 162.6,-43.97 8.31,-6.41 15.05,-12.02 24.24,-18.06 43.44,-28.59 103.42,-19.34 116.44,19 8.05,23.7 -1.81,48.91 -11.96,65.95 -7.07,11.85 -28.11,37.72 -39.86,43.61 -0.71,-9.37 -2.89,-16.71 -6.89,-23.72 -6.02,-10.57 -9.75,-11.61 -13.59,-16.26 99.99,-24.49 55.45,-117.25 -25.69,-82.09 -18.83,8.16 -43.61,30.53 -73.49,45.81 -42.64,21.8 -49.02,18.64 -91.39,27.9 -70.97,15.5 -109.94,53.1 -90.87,137.47 7.27,32.2 20.06,60.08 28.36,90.84 6.72,24.9 2.99,26.66 -4.19,48.83 -4.16,12.81 -9.24,31.77 -14.72,44.01l-58.85 -0.01c-4.72,-8.93 -11.15,-32.79 -15.04,-44.4 -7.22,-21.54 -10.61,-23.9 -4.22,-47.94 8.33,-31.37 20.97,-58.24 28.44,-90.86 19.38,-84.69 -19.8,-122.7 -91.33,-138.06 -17.21,-3.7 -32.58,-5.07 -49.27,-10.33 -60.57,-19.08 -82.57,-48.33 -115.55,-63.39 -30.99,-14.15 -72.89,-8.45 -81.18,21.96 -7.32,26.86 15.18,44.59 34.25,53.25 8.73,3.98 18.22,4.98 21.61,8.2 -18.44,12.82 -17.52,29.77 -20.83,38.54zm-55.96 -46.95c10.57,21.78 23.52,35.57 40.19,50.95 16.51,15.22 15.29,8.25 22.46,23.06 18.13,37.42 82.39,60.89 125.63,30.56 54.53,-38.24 6.81,-117.98 -69.09,-112.31 -23.51,1.75 -15.24,7.47 -38.12,2.62 -21.19,-4.49 -51.68,-17.89 -48.29,-41.62 3.45,-24.15 35.89,-27.94 61.81,-17.44 20.27,8.22 47.2,33.34 85.18,51.45 10.81,5.16 5.79,1.56 11.44,11.34 10.55,18.25 33.95,30.06 54.14,37.06 35.76,12.41 37.29,17.05 50.02,63.72 3.21,11.75 7.89,25.88 6.55,38.86 -1.41,13.73 -2.87,27.2 -4.32,41.18 -1.41,13.64 -3.05,27.59 -4.23,41.18 -1.9,21.76 13.63,69.67 20.13,93.94 1.28,4.8 2.07,14.43 6.04,16.82l119.5 -0.1c2.28,-11.54 6.21,-24.35 9.35,-35.94 18.08,-66.84 17.48,-49.21 10.83,-115.65 -4.19,-41.94 -8.06,-41.47 1.9,-78.91 6.93,-26.02 11.2,-47.69 31.79,-58.18 18.04,-9.2 53.86,-14.73 71.63,-42.27 4.79,-7.42 1.51,-8.2 10.58,-12.19 38.98,-17.18 60.64,-40.19 84.42,-51.16 22.47,-10.37 55.57,-9.91 63.52,12.42 8.75,24.6 -24.61,40.19 -44.28,44.82 -25.88,6.09 -17.64,0.61 -37.51,-1.64 -74.88,-8.5 -126.24,68.43 -76.66,108.83 42.07,34.28 105.22,12.12 126.61,-22.13 3,-4.81 4.38,-11.37 8.18,-14.58 11.76,-9.95 23.04,-16.43 35.5,-31.74 30.45,-37.41 55.22,-106.18 -1.49,-133.98 -37.75,-18.51 -78.7,-10.42 -111.54,13.34 -29.87,21.61 -51.12,41.2 -92.08,52.26 -6.56,1.77 -6.61,-1.1 -10.75,-5.25 -8.17,-8.2 -20.39,-17.32 -30.64,-23.62 -65.31,-40.14 -162,-39.22 -226.27,4.09 -34.73,23.4 -22.22,29.46 -43.02,22.32 -46.23,-15.88 -56.48,-31.56 -90.35,-53.99 -31.73,-21.02 -78.67,-27.8 -111.9,-5.33 -34.3,23.18 -33.37,63.19 -16.86,97.21z"/>
 </g>
</svg>
