<?xml version="1.0" encoding="utf-8"?>
<!-- Generator: Adobe Illustrator 22.0.1, SVG Export Plug-In . SVG Version: 6.00 Build 0)  -->
<svg version="1.1" id="Шар_1" xmlns="http://www.w3.org/2000/svg" xmlns:xlink="http://www.w3.org/1999/xlink" x="0px" y="0px"
	 viewBox="0 0 286.5 491" style="enable-background:new 0 0 286.5 491;" xml:space="preserve">
<style type="text/css">
	.st0{fill:none;stroke:#1D1D1B;stroke-width:10;stroke-miterlimit:10;}
</style>
<path class="st0" d="M143.5,8C130,22.6,80.8,109.7,72.6,124.5C29.5,202.9-23.7,329.9,23.5,416c6.9,12.6,8,12.2,14.2,20.8
	c1.7,2.4,3,3.8,5.6,6.4c2.4,2.5,3.1,3.8,5.3,5.7c70.9,62,171.1,42.8,214-31.4c42.7-74,5-186.4-31.7-259.8
	c-5.6-11.2-11.2-21.5-16.2-31.8c-8.3-16.9-23.9-42.7-34-60.1C170.3,48,154.8,24.7,143.5,8L143.5,8z"/>
</svg>
