<?xml version="1.0" encoding="UTF-8"?>
<!DOCTYPE svg PUBLIC "-//W3C//DTD SVG 1.1//EN" "http://www.w3.org/Graphics/SVG/1.1/DTD/svg11.dtd">
<!-- Creator: CorelDRAW 2017 -->
<svg xmlns="http://www.w3.org/2000/svg" xml:space="preserve" width="1682px" height="369px" version="1.1" style="shape-rendering:geometricPrecision; text-rendering:geometricPrecision; image-rendering:optimizeQuality; fill-rule:evenodd; clip-rule:evenodd"
viewBox="0 0 30877.99 6784.09"
 xmlns:xlink="http://www.w3.org/1999/xlink">
 <defs>
  <style type="text/css">
   <![CDATA[
    .fil7 {fill:none;fill-rule:nonzero}
    .fil4 {fill:#2B2A29}
    .fil6 {fill:#FFED00}
    .fil3 {fill:#EF7F1A}
    .fil5 {fill:#E31E24}
    .fil0 {fill:#5B5B5B;fill-rule:nonzero}
    .fil1 {fill:#5B5B5B;fill-rule:nonzero}
    .fil2 {fill:#ED6E1E;fill-rule:nonzero}
   ]]>
  </style>
 </defs>
 <g id="Слой_x0020_1">
  <metadata id="CorelCorpID_0Corel-Layer"/>
  <path class="fil0" d="M7012.9 973.63l1588.11 0 0 1912.79 202.53 0 0 890.49 -388.99 0 0 -501.51 -1443.44 0 0 501.51 -388.99 0 0 -890.49 196.11 0c95.37,-196.63 158.59,-424.89 189.15,-684.22 30.54,-259.87 45.52,-588.3 45.52,-985.34l0 -243.23zm443.64 388.98c0,696.53 -64.28,1204.46 -192.87,1523.81l871.21 0 0 -1523.81 -678.34 0zm1500.95 775.83c0,-234.67 35.35,-431.85 105.53,-591.52 51.99,-117.33 123.78,-222.89 214.33,-316.11 90.55,-93.24 189.67,-162.36 297.38,-207.91 143.57,-60.53 309.15,-91.07 496.67,-91.07 339.71,0 610.81,105.54 814.95,316.11 203.61,211.1 305.4,504.2 305.4,879.78 0,372.38 -101.27,663.85 -303.26,873.88 -202,210.58 -472.57,315.6 -810.65,315.6 -342.38,0 -615.09,-104.48 -817.1,-313.99 -201.99,-208.95 -303.25,-497.21 -303.25,-864.77zm478.99 -15.53c0,260.94 60.56,458.63 181.1,593.66 120.55,134.47 273.8,201.99 459.17,201.99 185.94,0 338.11,-66.98 457.59,-200.38 118.94,-133.95 178.41,-334.33 178.41,-601.71 0,-264.15 -57.86,-461.32 -174.14,-590.98 -115.73,-130.19 -269.5,-195.04 -461.86,-195.04 -191.81,0 -346.65,65.91 -463.98,197.19 -117.36,131.8 -176.29,330.04 -176.29,595.27zm2065.13 -1149.28l1719.91 0 0 388.98 -1253.75 0 0 533.65 620.97 0c170.92,0 313.44,20.89 425.96,62.68 113.06,41.8 209.49,118.97 289.33,232.01 79.83,112.52 120.02,244.86 120.02,396.49 0,155.37 -40.19,288.8 -121.09,399.7 -80.37,110.37 -171.99,186.46 -275.4,227.19 -102.87,40.71 -249.68,61.07 -439.89,61.07l-1086.06 0 0 -2301.77zm466.16 1912.79l451.66 0c144.12,0 245.93,-6.97 304.34,-20.91 58.41,-13.93 109.83,-45.53 153.23,-95.37 43.4,-49.3 64.83,-110.37 64.83,-182.7 0,-105.56 -38.05,-182.17 -113.59,-230.4 -76.08,-47.67 -205.22,-71.79 -388.44,-71.79l-472.03 0 0 601.17zm1772.55 388.98l0 -2301.77 745.31 0c282.36,0 466.13,11.23 551.86,34.29 131.81,34.81 242.18,109.83 331.13,225.56 88.94,115.73 133.4,265.23 133.4,448.45 0,141.46 -25.72,259.88 -76.62,356.31 -51.43,96.45 -116.25,171.99 -195.03,227.19 -78.75,54.65 -159.13,91.09 -240.57,108.76 -110.91,21.97 -271.11,33.23 -481.14,33.23l-302.19 0 0 867.98 -466.15 0zm466.15 -1912.79l0 655.8 253.43 0c182.71,0 304.34,-12.32 365.96,-36.41 61.61,-24.12 109.83,-61.62 144.66,-113.61 34.81,-51.42 52.51,-110.89 52.51,-179.49 0,-84.11 -24.66,-153.23 -73.42,-207.89 -49.27,-54.65 -110.89,-88.94 -186.46,-102.87 -55.17,-10.17 -166.09,-15.53 -333.26,-15.53l-223.42 0zm1628.43 -388.98l466.16 0 0 919.42 620.99 0c162.88,0 303.25,22.49 420.58,66.98 117.34,44.46 215.39,123.75 294.17,238.42 78.23,114.67 117.33,246.47 117.33,395.43 0,155.9 -40.73,289.85 -122.17,402.91 -81.96,112.52 -172.51,187 -272.71,223.41 -99.66,36.98 -245.93,55.2 -438.29,55.2l-1086.06 0 0 -2301.77zm466.16 1912.79l453.27 0c144.14,0 244.86,-6.97 302.18,-20.91 56.81,-13.93 107.71,-46.07 152.17,-95.91 44.49,-49.82 66.46,-110.37 66.46,-182.16 0,-101.81 -36.44,-178.41 -108.77,-229.32 -72.88,-50.9 -204.16,-76.08 -393.28,-76.08l-472.03 0 0 604.38zm1719.91 -1912.79l466.13 0 0 2301.77 -466.13 0 0 -2301.77zm892.25 0l433.99 0 0 1532.37 932.29 -1532.37 462.92 0 0 2301.77 -433.99 0 0 -1507.73 -932.29 1507.73 -462.92 0 0 -2301.77zm1189.47 -665.48l215.39 0c-12.34,142 -62.7,253.98 -150.02,334.88 -87.34,80.92 -200.4,121.63 -339.17,121.63 -139.3,0 -252.37,-40.71 -339.69,-121.63 -87.34,-80.9 -137.7,-192.88 -150.04,-334.88l215.39 0c7.51,73.94 33.23,130.2 78.23,168.24 45.01,38.04 110.38,56.8 196.11,56.8 85.19,0 150.56,-18.76 195.57,-56.8 45,-38.04 70.72,-94.3 78.23,-168.24zm-13269.8 3657.13l1829.2 0 0 2301.77 -466.14 0 0 -1912.79 -896.93 0 0 1912.79 -466.13 0 0 -2301.77zm2241.91 2301.77l0 -2301.77 745.31 0c282.37,0 466.13,11.23 551.87,34.28 131.8,34.82 242.17,109.84 331.12,225.57 88.95,115.73 133.41,265.23 133.41,448.45 0,141.46 -25.73,259.88 -76.63,356.31 -51.42,96.44 -116.25,171.99 -195.02,227.18 -78.76,54.66 -159.13,91.1 -240.57,108.77 -110.92,21.97 -271.11,33.23 -481.15,33.23l-302.18 0 0 867.98 -466.16 0zm466.16 -1912.79l0 655.8 253.43 0c182.7,0 304.33,-12.32 365.95,-36.41 61.62,-24.12 109.83,-61.62 144.66,-113.61 34.81,-51.42 52.51,-110.89 52.51,-179.49 0,-84.11 -24.66,-153.23 -73.41,-207.89 -49.28,-54.66 -110.9,-88.95 -186.46,-102.87 -55.18,-10.17 -166.09,-15.53 -333.27,-15.53l-223.41 0zm1476.8 775.83c0,-234.67 35.35,-431.85 105.54,-591.52 51.98,-117.33 123.77,-222.89 214.32,-316.11 90.55,-93.24 189.67,-162.36 297.38,-207.91 143.58,-60.53 309.15,-91.07 496.67,-91.07 339.71,0 610.82,105.54 814.95,316.11 203.61,211.1 305.4,504.2 305.4,879.78 0,372.38 -101.27,663.85 -303.25,873.88 -202.01,210.58 -472.58,315.59 -810.66,315.59 -342.38,0 -615.09,-104.47 -817.1,-313.98 -201.99,-208.95 -303.25,-497.22 -303.25,-864.77zm478.99 -15.53c0,260.93 60.56,458.63 181.1,593.66 120.55,134.47 273.8,201.99 459.18,201.99 185.93,0 338.1,-66.98 457.58,-200.38 118.94,-133.95 178.41,-334.34 178.41,-601.71 0,-264.15 -57.86,-461.32 -174.13,-590.98 -115.74,-130.19 -269.51,-195.04 -461.86,-195.04 -191.82,0 -346.66,65.91 -463.99,197.19 -117.36,131.8 -176.29,330.04 -176.29,595.27zm2078 -1149.28l1559.17 0 0 388.98 -1093.04 0 0 1912.79 -466.13 0 0 -2301.77zm1737.19 2301.77l0 -2301.77 466.16 0 0 906.56 906.56 0 0 -906.56 466.14 0 0 2301.77 -466.14 0 0 -1006.22 -906.56 0 0 1006.22 -466.16 0zm2162.65 -1136.96c0,-234.67 35.35,-431.85 105.53,-591.52 51.99,-117.33 123.78,-222.89 214.33,-316.11 90.55,-93.24 189.67,-162.36 297.37,-207.91 143.58,-60.53 309.15,-91.07 496.67,-91.07 339.71,0 610.82,105.54 814.96,316.11 203.61,211.1 305.39,504.2 305.39,879.78 0,372.38 -101.26,663.85 -303.25,873.88 -202,210.58 -472.57,315.59 -810.65,315.59 -342.38,0 -615.09,-104.47 -817.1,-313.98 -201.99,-208.95 -303.25,-497.22 -303.25,-864.77zm478.99 -15.53c0,260.93 60.55,458.63 181.1,593.66 120.55,134.47 273.8,201.99 459.17,201.99 185.94,0 338.11,-66.98 457.59,-200.38 118.94,-133.95 178.41,-334.34 178.41,-601.71 0,-264.15 -57.87,-461.32 -174.14,-590.98 -115.73,-130.19 -269.5,-195.04 -461.86,-195.04 -191.81,0 -346.65,65.91 -463.98,197.19 -117.36,131.8 -176.29,330.04 -176.29,595.27zm2383.39 -522.42l-453.27 -106.08c97.51,-375.06 374.52,-562.58 831.02,-562.58 270.03,0 474.18,59.47 611.86,178.41 137.7,118.94 206.3,258.79 206.3,419.53 0,109.85 -31.62,208.97 -94.3,297.91 -62.7,88.4 -157,166.09 -282.36,233.61 152.16,52.51 266.81,126.45 342.89,222.35 76.09,96.45 114.13,214.31 114.13,355.24 0,202.53 -73.94,365.93 -222.35,490.79 -147.88,124.84 -369.71,187.52 -664.93,187.52 -240.57,0 -430.78,-40.18 -570.09,-120.54 -139.31,-80.38 -243.78,-230.94 -313.97,-451.69l424.34 -138.24c43.94,138.78 102.87,228.79 175.75,269.52 72.87,41.25 162.88,61.6 270.04,61.6 146.81,0 253.98,-31.6 321.47,-95.37 66.98,-63.76 100.75,-136.61 100.75,-219.14 0,-94.3 -38.05,-170.91 -114.13,-228.77 -75.54,-57.87 -190.21,-86.8 -342.92,-86.8l-105.54 0 0 -347.21 53.03 0c142,0 250.77,-32.15 325.77,-95.91 75.56,-63.74 113.06,-148.94 113.06,-254.5 0,-84.13 -30.54,-154.83 -91.64,-212.72 -61.07,-57.32 -148.41,-86.25 -261.99,-86.25 -194.49,0 -318.81,96.45 -372.92,289.32z"/>
  <path class="fil0" d="M7012.9 973.63l1588.11 0 0 1912.79 202.53 0 0 890.49 -388.99 0 0 -501.51 -1443.44 0 0 501.51 -388.99 0 0 -890.49 196.11 0c95.37,-196.63 158.59,-424.89 189.15,-684.22 30.54,-259.87 45.52,-588.3 45.52,-985.34l0 -243.23zm443.64 388.98c0,696.53 -64.28,1204.46 -192.87,1523.81l871.21 0 0 -1523.81 -678.34 0zm1500.95 775.83c0,-234.67 35.35,-431.85 105.53,-591.52 51.99,-117.33 123.78,-222.89 214.33,-316.11 90.55,-93.24 189.67,-162.36 297.38,-207.91 143.57,-60.53 309.15,-91.07 496.67,-91.07 339.71,0 610.81,105.54 814.95,316.11 203.61,211.1 305.4,504.2 305.4,879.78 0,372.38 -101.27,663.85 -303.26,873.88 -202,210.58 -472.57,315.6 -810.65,315.6 -342.38,0 -615.09,-104.48 -817.1,-313.99 -201.99,-208.95 -303.25,-497.21 -303.25,-864.77zm478.99 -15.53c0,260.94 60.56,458.63 181.1,593.66 120.55,134.47 273.8,201.99 459.17,201.99 185.94,0 338.11,-66.98 457.59,-200.38 118.94,-133.95 178.41,-334.33 178.41,-601.71 0,-264.15 -57.86,-461.32 -174.14,-590.98 -115.73,-130.19 -269.5,-195.04 -461.86,-195.04 -191.81,0 -346.65,65.91 -463.98,197.19 -117.36,131.8 -176.29,330.04 -176.29,595.27zm2065.13 -1149.28l1719.91 0 0 388.98 -1253.75 0 0 533.65 620.97 0c170.92,0 313.44,20.89 425.96,62.68 113.06,41.8 209.49,118.97 289.33,232.01 79.83,112.52 120.02,244.86 120.02,396.49 0,155.37 -40.19,288.8 -121.09,399.7 -80.37,110.37 -171.99,186.46 -275.4,227.19 -102.87,40.71 -249.68,61.07 -439.89,61.07l-1086.06 0 0 -2301.77zm466.16 1912.79l451.66 0c144.12,0 245.93,-6.97 304.34,-20.91 58.41,-13.93 109.83,-45.53 153.23,-95.37 43.4,-49.3 64.83,-110.37 64.83,-182.7 0,-105.56 -38.05,-182.17 -113.59,-230.4 -76.08,-47.67 -205.22,-71.79 -388.44,-71.79l-472.03 0 0 601.17zm1772.55 388.98l0 -2301.77 745.31 0c282.36,0 466.13,11.23 551.86,34.29 131.81,34.81 242.18,109.83 331.13,225.56 88.94,115.73 133.4,265.23 133.4,448.45 0,141.46 -25.72,259.88 -76.62,356.31 -51.43,96.45 -116.25,171.99 -195.03,227.19 -78.75,54.65 -159.13,91.09 -240.57,108.76 -110.91,21.97 -271.11,33.23 -481.14,33.23l-302.19 0 0 867.98 -466.15 0zm466.15 -1912.79l0 655.8 253.43 0c182.71,0 304.34,-12.32 365.96,-36.41 61.61,-24.12 109.83,-61.62 144.66,-113.61 34.81,-51.42 52.51,-110.89 52.51,-179.49 0,-84.11 -24.66,-153.23 -73.42,-207.89 -49.27,-54.65 -110.89,-88.94 -186.46,-102.87 -55.17,-10.17 -166.09,-15.53 -333.26,-15.53l-223.42 0zm1628.43 -388.98l466.16 0 0 919.42 620.99 0c162.88,0 303.25,22.49 420.58,66.98 117.34,44.46 215.39,123.75 294.17,238.42 78.23,114.67 117.33,246.47 117.33,395.43 0,155.9 -40.73,289.85 -122.17,402.91 -81.96,112.52 -172.51,187 -272.71,223.41 -99.66,36.98 -245.93,55.2 -438.29,55.2l-1086.06 0 0 -2301.77zm466.16 1912.79l453.27 0c144.14,0 244.86,-6.97 302.18,-20.91 56.81,-13.93 107.71,-46.07 152.17,-95.91 44.49,-49.82 66.46,-110.37 66.46,-182.16 0,-101.81 -36.44,-178.41 -108.77,-229.32 -72.88,-50.9 -204.16,-76.08 -393.28,-76.08l-472.03 0 0 604.38zm1719.91 -1912.79l466.13 0 0 2301.77 -466.13 0 0 -2301.77zm892.25 0l433.99 0 0 1532.37 932.29 -1532.37 462.92 0 0 2301.77 -433.99 0 0 -1507.73 -932.29 1507.73 -462.92 0 0 -2301.77zm1189.47 -665.48l215.39 0c-12.34,142 -62.7,253.98 -150.02,334.88 -87.34,80.92 -200.4,121.63 -339.17,121.63 -139.3,0 -252.37,-40.71 -339.69,-121.63 -87.34,-80.9 -137.7,-192.88 -150.04,-334.88l215.39 0c7.51,73.94 33.23,130.2 78.23,168.24 45.01,38.04 110.38,56.8 196.11,56.8 85.19,0 150.56,-18.76 195.57,-56.8 45,-38.04 70.72,-94.3 78.23,-168.24zm-13269.8 3657.13l1829.2 0 0 2301.77 -466.14 0 0 -1912.79 -896.93 0 0 1912.79 -466.13 0 0 -2301.77zm2241.91 2301.77l0 -2301.77 745.31 0c282.37,0 466.13,11.23 551.87,34.28 131.8,34.82 242.17,109.84 331.12,225.57 88.95,115.73 133.41,265.23 133.41,448.45 0,141.46 -25.73,259.88 -76.63,356.31 -51.42,96.44 -116.25,171.99 -195.02,227.18 -78.76,54.66 -159.13,91.1 -240.57,108.77 -110.92,21.97 -271.11,33.23 -481.15,33.23l-302.18 0 0 867.98 -466.16 0zm466.16 -1912.79l0 655.8 253.43 0c182.7,0 304.33,-12.32 365.95,-36.41 61.62,-24.12 109.83,-61.62 144.66,-113.61 34.81,-51.42 52.51,-110.89 52.51,-179.49 0,-84.11 -24.66,-153.23 -73.41,-207.89 -49.28,-54.66 -110.9,-88.95 -186.46,-102.87 -55.18,-10.17 -166.09,-15.53 -333.27,-15.53l-223.41 0zm1476.8 775.83c0,-234.67 35.35,-431.85 105.54,-591.52 51.98,-117.33 123.77,-222.89 214.32,-316.11 90.55,-93.24 189.67,-162.36 297.38,-207.91 143.58,-60.53 309.15,-91.07 496.67,-91.07 339.71,0 610.82,105.54 814.95,316.11 203.61,211.1 305.4,504.2 305.4,879.78 0,372.38 -101.27,663.85 -303.25,873.88 -202.01,210.58 -472.58,315.59 -810.66,315.59 -342.38,0 -615.09,-104.47 -817.1,-313.98 -201.99,-208.95 -303.25,-497.22 -303.25,-864.77zm478.99 -15.53c0,260.93 60.56,458.63 181.1,593.66 120.55,134.47 273.8,201.99 459.18,201.99 185.93,0 338.1,-66.98 457.58,-200.38 118.94,-133.95 178.41,-334.34 178.41,-601.71 0,-264.15 -57.86,-461.32 -174.13,-590.98 -115.74,-130.19 -269.51,-195.04 -461.86,-195.04 -191.82,0 -346.66,65.91 -463.99,197.19 -117.36,131.8 -176.29,330.04 -176.29,595.27zm2078 -1149.28l1559.17 0 0 388.98 -1093.04 0 0 1912.79 -466.13 0 0 -2301.77zm1737.19 2301.77l0 -2301.77 466.16 0 0 906.56 906.56 0 0 -906.56 466.14 0 0 2301.77 -466.14 0 0 -1006.22 -906.56 0 0 1006.22 -466.16 0zm2162.65 -1136.96c0,-234.67 35.35,-431.85 105.53,-591.52 51.99,-117.33 123.78,-222.89 214.33,-316.11 90.55,-93.24 189.67,-162.36 297.37,-207.91 143.58,-60.53 309.15,-91.07 496.67,-91.07 339.71,0 610.82,105.54 814.96,316.11 203.61,211.1 305.39,504.2 305.39,879.78 0,372.38 -101.26,663.85 -303.25,873.88 -202,210.58 -472.57,315.59 -810.65,315.59 -342.38,0 -615.09,-104.47 -817.1,-313.98 -201.99,-208.95 -303.25,-497.22 -303.25,-864.77zm478.99 -15.53c0,260.93 60.55,458.63 181.1,593.66 120.55,134.47 273.8,201.99 459.17,201.99 185.94,0 338.11,-66.98 457.59,-200.38 118.94,-133.95 178.41,-334.34 178.41,-601.71 0,-264.15 -57.87,-461.32 -174.14,-590.98 -115.73,-130.19 -269.5,-195.04 -461.86,-195.04 -191.81,0 -346.65,65.91 -463.98,197.19 -117.36,131.8 -176.29,330.04 -176.29,595.27zm2383.39 -522.42l-453.27 -106.08c97.51,-375.06 374.52,-562.58 831.02,-562.58 270.03,0 474.18,59.47 611.86,178.41 137.7,118.94 206.3,258.79 206.3,419.53 0,109.85 -31.62,208.97 -94.3,297.91 -62.7,88.4 -157,166.09 -282.36,233.61 152.16,52.51 266.81,126.45 342.89,222.35 76.09,96.45 114.13,214.31 114.13,355.24 0,202.53 -73.94,365.93 -222.35,490.79 -147.88,124.84 -369.71,187.52 -664.93,187.52 -240.57,0 -430.78,-40.18 -570.09,-120.54 -139.31,-80.38 -243.78,-230.94 -313.97,-451.69l424.34 -138.24c43.94,138.78 102.87,228.79 175.75,269.52 72.87,41.25 162.88,61.6 270.04,61.6 146.81,0 253.98,-31.6 321.47,-95.37 66.98,-63.76 100.75,-136.61 100.75,-219.14 0,-94.3 -38.05,-170.91 -114.13,-228.77 -75.54,-57.87 -190.21,-86.8 -342.92,-86.8l-105.54 0 0 -347.21 53.03 0c142,0 250.77,-32.15 325.77,-95.91 75.56,-63.74 113.06,-148.94 113.06,-254.5 0,-84.13 -30.54,-154.83 -91.64,-212.72 -61.07,-57.32 -148.41,-86.25 -261.99,-86.25 -194.49,0 -318.81,96.45 -372.92,289.32z"/>
  <g>
   <polygon class="fil1" points="22258.17,6784.11 22258.17,325.68 22460.27,325.68 22460.27,6784.11 "/>
  </g>
  <polygon class="fil2" points="2717.03,3690.87 871.6,4786.6 1851.91,2998.78 467.82,2076.06 2082.65,1903.03 2601.73,0 3582.04,1384.06 6523.22,749.69 4274.14,2710.43 6004.16,5939.96 "/>
  <polygon class="fil2" points="2717.03,3690.87 871.6,4786.6 1851.91,2998.78 467.82,2076.06 2082.65,1903.03 2601.73,0 3582.04,1384.06 6523.22,749.69 4274.14,2710.43 6004.16,5939.96 "/>
  <path class="fil3" d="M871.6 4786.6l980.31 -1787.82 -1384.09 -922.72 1614.83 -173.03 519.08 -1903.03 654.98 924.76c263.19,1572.69 -1166.88,3138.57 -2385.11,3861.84z"/>
  <path class="fil3" d="M871.6 4786.6l980.31 -1787.82 -1384.09 -922.72 1614.83 -173.03 519.08 -1903.03 654.98 924.76c263.19,1572.69 -1166.88,3138.57 -2385.11,3861.84z"/>
  <path class="fil4" d="M859.33 4805.69c1657.16,963.19 3354.02,1391.02 5144.92,1146.03 -1985.34,448.17 -3802.03,183.03 -5420.91,-643.18l275.99 -502.85z"/>
  <path class="fil4" d="M859.33 4805.69c1657.16,963.19 3354.02,1391.02 5144.92,1146.03 -1985.34,448.17 -3802.03,183.03 -5420.91,-643.18l275.99 -502.85z"/>
  <path class="fil5" d="M519.51 5424.6c1355.97,712.45 2801.44,1038.08 4258.4,838.76 -1608.54,363.12 -3157.85,176.66 -4492.49,-412.41l234.09 -426.35z"/>
  <path class="fil5" d="M519.51 5424.6c1355.97,712.45 2801.44,1038.08 4258.4,838.76 -1608.54,363.12 -3157.85,176.66 -4492.49,-412.41l234.09 -426.35z"/>
  <path class="fil6" d="M176.65 6048.91c757.05,394.14 1771.58,648.08 2722.82,615.09 -1007.5,227.42 -2063.46,75.71 -2899.47,-293.28l176.65 -321.81z"/>
  <path class="fil6" d="M176.65 6048.91c757.05,394.14 1771.58,648.08 2722.82,615.09 -1007.5,227.42 -2063.46,75.71 -2899.47,-293.28l176.65 -321.81z"/>
  <path class="fil2" d="M25008.58 2342.44c0,313.38 -73.85,556.23 -222.05,729.59 -147.68,173.38 -353.31,259.78 -615.83,259.78 -261.97,0 -467.6,-85.86 -616.91,-257.59 -149.3,-171.19 -225.32,-411.83 -227.51,-720.28l0 -399.25c0,-321.03 74.37,-571.52 222.59,-751.47 148.76,-179.93 354.93,-270.17 618.56,-270.17 259.76,0 464.31,88.59 613.64,265.25 149.84,177.22 225.32,425.51 227.51,744.9l0 399.24zm-472.53 -392.13c0,-210.55 -30.08,-366.97 -89.71,-469.8 -59.62,-102.26 -152.57,-153.68 -278.91,-153.68 -124.71,0 -217.13,49.23 -277.29,148.22 -59.62,98.98 -90.79,249.39 -92.98,451.21l0 415.1c0,204.54 30.62,354.93 91.33,451.75 61.25,96.8 155.33,144.92 282.21,144.92 123.07,0 214.4,-47.04 274,-141.64 59.62,-94.61 90.24,-241.75 91.35,-440.26l0 -405.82zm2445.79 1348.69l-469.26 0 0 -997.57 -695.66 0 0 997.57 -470.91 0 0 -2333.14 470.91 0 0 945.09 695.66 0 0 -945.09 469.26 0 0 2333.14zm1057.71 -951.63l-205.09 0 0 951.63 -470.88 0 0 -2333.14 470.88 0 0 931.94 158.61 0 405.25 -931.94 573.71 0 -570.43 1086.17 634.44 1246.97 -560.59 0 -435.9 -951.63zm2764.66 -4.93c0,313.38 -73.85,556.23 -222.05,729.59 -147.68,173.38 -353.31,259.78 -615.83,259.78 -261.98,0 -467.61,-85.86 -616.91,-257.59 -149.31,-171.19 -225.33,-411.83 -227.52,-720.28l0 -399.25c0,-321.03 74.37,-571.52 222.59,-751.47 148.77,-179.93 354.94,-270.17 618.56,-270.17 259.77,0 464.32,88.59 613.64,265.25 149.85,177.22 225.33,425.51 227.52,744.9l0 399.24zm-472.54 -392.13c0,-210.55 -30.08,-366.97 -89.7,-469.8 -59.62,-102.26 -152.58,-153.68 -278.92,-153.68 -124.71,0 -217.12,49.23 -277.29,148.22 -59.62,98.98 -90.78,249.39 -92.97,451.21l0 415.1c0,204.54 30.62,354.93 91.33,451.75 61.24,96.8 155.33,144.92 282.21,144.92 123.06,0 214.39,-47.04 273.99,-141.64 59.62,-94.61 90.25,-241.75 91.35,-440.26l0 -405.82z"/>
  <path class="fil2" d="M23413.18 4595.81l433.99 0 0 1295.68 383.37 0 0 -1295.68 432.43 0 0 1298.8 226.37 0 -30.76 845.02 -400.09 0 0 -491.36 -1045.31 0 0 -1652.46zm2364.98 1683.75c-222.2,0 -395.38,-66.23 -520.05,-198.73 -124.15,-132.49 -186.2,-321.84 -186.2,-568.57l0 -131.43c0,-260.81 56.85,-462.14 171.08,-604.03 114.24,-141.37 277.51,-212.29 490.84,-212.29 207.6,0 364.09,66.24 468.93,199.26 104.84,132.99 158.56,329.64 160.65,589.93l0 212.31 -860.65 0c6.24,123.6 33.38,213.85 80.85,271.24 47.98,56.84 122.04,85.54 221.68,85.54 145.01,0 265.49,-50.08 362.53,-150.76l169.52 261.33c-53.21,73.54 -129.9,133.01 -231.07,178.38 -100.68,45.4 -210.21,67.82 -328.11,67.82zm-272.28 -1014.01l432.43 0 0 -40.16c-2.11,-99.64 -18.26,-175.27 -49.04,-226.91 -30.26,-51.64 -83.46,-77.19 -158.57,-77.19 -75.65,0 -130.41,27.11 -164.31,81.9 -34.42,54.24 -54.24,141.86 -60.51,262.36zm2346.76 982.72l-432.95 0 0 -635.33 -380.25 0 0 635.33 -433.99 0 0 -1652.46 433.99 0 0 660.35 380.25 0 0 -660.35 432.95 0 0 1652.46zm1506.41 -1295.68l-424.58 0 0 1295.68 -432.95 0 0 -1295.68 -421.45 0 0 -356.78 1278.98 0 0 356.78zm1518.94 521.61c0,259.76 -44.35,459.02 -133.54,597.24 -89.2,138.74 -222.22,208.12 -397.98,208.12 -134.58,0 -242.57,-54.76 -324.44,-163.79l0 666.91 -432.43 0 0 -2186.87 400.59 0 15.14 150.73c82.41,-121.54 195.08,-182.03 337.99,-182.03 176.31,0 308.8,64.16 397.99,192.47 89.2,128.31 134.58,324.96 136.68,589.95l0 127.27zm-430.87 -107.47c0,-160.13 -17.72,-273.32 -52.68,-339.56 -34.94,-66.23 -94.41,-99.63 -177.87,-99.63 -88.66,0 -153.36,37.04 -194.02,111.63l0 776.15c38.58,71.46 104.32,107.47 196.63,107.47 86.08,0 145.01,-36.01 178.41,-108.51 32.86,-72.51 49.53,-185.68 49.53,-338.52l0 -109.03z"/>
  <line class="fil7" x1="30022.03" y1="6782.68" x2="29589.6" y2= "6782.68" />
 </g>
</svg>
