<?xml version="1.0" encoding="iso-8859-1"?>
<!-- Generator: Adobe Illustrator 18.1.1, SVG Export Plug-In . SVG Version: 6.00 Build 0)  -->
<svg version="1.1" id="Capa_1" xmlns="http://www.w3.org/2000/svg" xmlns:xlink="http://www.w3.org/1999/xlink" x="0px" y="0px"
	 viewBox="0 0 612 612" style="enable-background:new 0 0 612 612;" xml:space="preserve">
<g>
	<g>
		<path d="M512.297,367.486c0,0-117.382-118.184-121.154-121.559c17.505-17.592,27.53-41.233,27.795-65.956
			c11.969-3.144,20.717-14.059,20.717-26.889c0-12.839-9.079-23.762-21.053-26.906c-0.352-22.284-8.39-43.827-24.305-61.061V0
			H252.51v64.818c-15.915,17.231-23.975,38.915-24.314,61.41c-11.88,3.21-20.652,14.115-20.652,26.853
			c0,12.728,8.636,23.624,20.511,26.837c0.253,24.725,10.3,48.403,27.886,66.044c-4.851,4.336-120.471,121.163-120.471,121.163
			c-6.441,6.435-10.186,14.833-10.662,23.514h-9.744v27.489H89.022v95.489h121.532v-95.489h-23.103l34.677-34.023v77.427h28.936V612
			h144.681V461.532h28.936v-78.223l35.892,35.856c7.128,7.12,16.507,10.68,25.866,10.68c9.359,0,18.728-3.562,25.85-10.683
			C526.535,404.915,526.544,381.733,512.297,367.486z M418.894,138.481c5.787,2.648,9.115,8.216,9.115,14.601
			c0,6.379-3.328,11.942-9.115,14.587V138.481z M227.915,167.572c-5.787-2.684-8.956-8.201-8.956-14.491
			c0-6.296,3.169-11.819,8.956-14.504V167.572z M407.32,178.966c0,20.365-7.234,39.951-21.702,55.181v-36.406l21.702-39.586V178.966
			z M264.086,11.574h118.638v50.638H264.086V11.574z M239.49,127.617c0-19.474,7.11-39.362,19.954-53.83h127.967
			c12.908,14.468,19.91,34.42,19.91,53.83v5.893l-29.754,56.022H270.495l-30.954-56.316l-0.051,0.027V127.617z M239.49,178.966
			v-21.701l21.702,38.663v38.317C246.724,218.974,239.49,199.346,239.49,178.966z M126.639,405.147
			c1.447,5.088,4.669,8.64,8.533,12.981h-8.533V405.147z M198.979,429.702v72.34h-98.383v-72.34H198.979z M178.957,410.978
			c-9.734,9.734-25.571,9.734-35.309-0.001c-4.721-4.715-7.319-10.984-7.319-17.651c0-6.668,2.6-12.936,7.324-17.655l13.175-13.176
			l36.001,34.613L178.957,410.978z M222.128,321.707v46.027l-21.151,21.186l-35.984-34.615l61.196-61.23
			C223.537,302.237,222.128,311.857,222.128,321.707z M263.419,600.426c2.58-11.575,13.656-21.672,26.892-21.672
			c13.235,0,24.312,10.097,26.892,21.672H263.419z M317.618,579.078c-7.234-6.926-16.722-11.181-27.379-11.181
			c-10.767,0-20.365,4.338-27.599,11.389V461.532h54.979V579.078z M317.618,449.957h-83.915V321.707
			c0-26.394,11.191-50.906,30.852-67.984c15.239,11.997,34.255,19.044,53.063,20.238V449.957z M272.767,245.066v-43.96h101.277
			v43.899c-14.468,11.363-32.07,17.585-50.646,17.585C304.822,262.591,287.235,256.392,272.767,245.066z M329.913,600.426
			c2.58-11.575,13.656-21.672,26.892-21.672c13.235,0,24.312,10.097,26.892,21.672H329.913z M384.171,579.134
			c-7.234-6.961-16.751-11.237-27.439-11.237c-10.737,0-20.306,4.314-27.54,11.333V461.532h54.979V579.134z M413.107,449.957
			h-83.915V273.972c18.809-1.166,37.901-8.231,53.182-20.278c19.584,17.03,30.733,41.552,30.733,68.013V449.957z M424.681,366.938
			v-45.232c0-10.254-1.458-20.248-4.304-29.736l63.755,63.738l-36.034,34.621L424.681,366.938z M504.114,410.978
			c-9.734,9.733-25.58,9.733-35.322,0l-12.463-12.463l36.007-34.621l11.777,11.777C513.847,385.405,513.847,401.243,504.114,410.978
			z"/>
		<circle cx="285.391" cy="164.088" r="13.671"/>
		<circle cx="361.721" cy="164.088" r="13.671"/>
		<circle cx="295.366" cy="290.26" r="10.372"/>
		<polygon points="142.554,483.234 152.681,483.234 152.681,471.66 164.256,471.66 164.256,461.532 152.681,461.532 
			152.681,449.957 142.554,449.957 142.554,461.532 130.979,461.532 130.979,471.66 142.554,471.66 		"/>
		<polygon points="327.745,20.255 316.171,20.255 316.171,31.83 304.596,31.83 304.596,43.404 316.171,43.404 316.171,54.979 
			327.745,54.979 327.745,43.404 339.32,43.404 339.32,31.83 327.745,31.83 		"/>
	</g>
</g>
<g>
</g>
<g>
</g>
<g>
</g>
<g>
</g>
<g>
</g>
<g>
</g>
<g>
</g>
<g>
</g>
<g>
</g>
<g>
</g>
<g>
</g>
<g>
</g>
<g>
</g>
<g>
</g>
<g>
</g>
</svg>
