<?xml version="1.0" encoding="UTF-8"?>
<!DOCTYPE svg PUBLIC "-//W3C//DTD SVG 1.1//EN" "http://www.w3.org/Graphics/SVG/1.1/DTD/svg11.dtd">
<!-- Creator: CorelDRAW 2017 -->
<svg xmlns="http://www.w3.org/2000/svg" xml:space="preserve" width="26.7607mm" height="43.2367mm" version="1.1" style="shape-rendering:geometricPrecision; text-rendering:geometricPrecision; image-rendering:optimizeQuality; fill-rule:evenodd; clip-rule:evenodd"
viewBox="0 0 25.03 40.43"
 xmlns:xlink="http://www.w3.org/1999/xlink">
 <defs>
  <style type="text/css">
   <![CDATA[
    .fil0 {fill:#dd7c59;fill-rule:nonzero}
   ]]>
  </style>
 </defs>
 <g id="Слой_x0020_1">
  <metadata id="CorelCorpID_0Corel-Layer"/>
  <path class="fil0" d="M12.51 0.54l0 0.55c3.16,0 6.01,1.28 8.08,3.34 2.07,2.07 3.34,4.92 3.35,8.08 0,3.12 -0.73,6.15 -1.83,8.94 -1.65,4.19 -4.15,7.84 -6.23,10.44 -1.04,1.3 -1.98,2.33 -2.65,3.04 -0.34,0.36 -0.61,0.63 -0.8,0.81 -0.09,0.09 -0.17,0.16 -0.21,0.2l-0.05 0.05 -0.02 0.02 0.37 0.4 0.37 -0.4 -0.01 -0.01c-0.16,-0.15 -3.13,-2.95 -6.04,-7.25 -1.45,-2.15 -2.9,-4.68 -3.97,-7.44 -1.07,-2.76 -1.78,-5.74 -1.78,-8.81 0,-3.16 1.28,-6.01 3.34,-8.08 2.07,-2.07 4.92,-3.34 8.08,-3.34l0 -1.09c-6.91,0 -12.51,5.6 -12.51,12.51 0,3.29 0.77,6.45 1.91,9.34 1.71,4.34 4.27,8.07 6.39,10.72 2.13,2.65 3.83,4.23 3.84,4.24 0.21,0.19 0.53,0.19 0.74,0 0.02,-0.02 3.04,-2.81 6.06,-7.24 1.51,-2.21 3.03,-4.83 4.17,-7.72 1.14,-2.89 1.91,-6.05 1.91,-9.34 -0,-6.91 -5.6,-12.51 -12.51,-12.51l0 0.54z"/>
  <path class="fil0" d="M20.63 11.51l-0.55 0c-0,2.1 -0.85,3.99 -2.22,5.36 -1.37,1.37 -3.26,2.22 -5.36,2.22 -2.09,0 -3.98,-0.85 -5.36,-2.22 -1.37,-1.37 -2.22,-3.26 -2.22,-5.36 0,-2.09 0.85,-3.98 2.22,-5.35 1.37,-1.37 3.26,-2.22 5.36,-2.22 2.09,0 3.98,0.84 5.36,2.22 1.37,1.37 2.22,3.26 2.22,5.35l1.09 0c-0,-4.78 -3.88,-8.66 -8.67,-8.67 -4.79,0 -8.67,3.88 -8.67,8.67 0,4.79 3.88,8.67 8.67,8.67 4.79,0 8.67,-3.88 8.67,-8.67l-0.55 0z"/>
  <path class="fil0" d="M17.33 33.94c1.69,0.28 3.1,0.7 4.05,1.19 0.47,0.24 0.82,0.5 1.04,0.74 0.11,0.12 0.18,0.23 0.22,0.33 0.04,0.1 0.06,0.18 0.06,0.27 -0,0.12 -0.03,0.24 -0.13,0.4 -0.17,0.27 -0.55,0.6 -1.13,0.9 -0.87,0.46 -2.15,0.86 -3.68,1.14 -1.54,0.28 -3.33,0.45 -5.24,0.45 -2.92,0 -5.56,-0.38 -7.42,-0.98 -0.93,-0.3 -1.67,-0.65 -2.14,-1.01 -0.23,-0.18 -0.4,-0.35 -0.49,-0.5 -0.1,-0.16 -0.13,-0.28 -0.13,-0.4 0,-0.09 0.02,-0.17 0.06,-0.26 0.07,-0.17 0.23,-0.38 0.5,-0.59 0.4,-0.32 1.03,-0.65 1.82,-0.93 0.8,-0.28 1.76,-0.53 2.85,-0.71 0.3,-0.05 0.5,-0.33 0.45,-0.63 -0.05,-0.3 -0.33,-0.5 -0.63,-0.45 -1.73,0.3 -3.2,0.74 -4.27,1.3 -0.54,0.28 -0.98,0.59 -1.32,0.96 -0.17,0.18 -0.3,0.39 -0.4,0.61 -0.1,0.22 -0.15,0.46 -0.15,0.71 -0,0.35 0.12,0.69 0.3,0.99 0.33,0.51 0.87,0.92 1.54,1.28 1.02,0.53 2.38,0.95 3.99,1.25 1.61,0.29 3.47,0.46 5.44,0.46 3.01,0 5.74,-0.39 7.76,-1.03 1.01,-0.32 1.84,-0.71 2.46,-1.17 0.31,-0.23 0.57,-0.49 0.76,-0.79 0.19,-0.29 0.3,-0.63 0.3,-0.99 0,-0.25 -0.06,-0.49 -0.16,-0.71 -0.18,-0.39 -0.47,-0.72 -0.84,-1.01 -0.56,-0.44 -1.3,-0.8 -2.19,-1.11 -0.89,-0.31 -1.94,-0.57 -3.1,-0.76 -0.3,-0.05 -0.58,0.15 -0.63,0.45 -0.05,0.3 0.15,0.58 0.45,0.63l-0 0z"/>
 </g>
</svg>
