<?xml version="1.0" encoding="utf-8"?>
<!-- Generator: Adobe Illustrator 22.0.1, SVG Export Plug-In . SVG Version: 6.00 Build 0)  -->
<svg version="1.1" id="Шар_1" xmlns="http://www.w3.org/2000/svg" xmlns:xlink="http://www.w3.org/1999/xlink" x="0px" y="0px"
	 viewBox="0 0 92.3 90.6" style="enable-background:new 0 0 92.3 90.6;" xml:space="preserve">
<style type="text/css">
	.st0{fill:#EE7028;}
</style>
<g id="Слой_x0020_1">
	<path class="st0" d="M30.5,30.2v-0.7c-0.4,0-0.5,0-0.7-0.4c-0.4-0.2-0.4-0.4-0.4-0.7l0,0v-0.2l0,0c0-1.9,0.5-3.5,1.4-5
		c0.7-1.4,1.9-2.7,3-3.7s1.8-2.1,2.5-3c0.4-0.5,0.5-0.9,0.7-1.4s0.4-1.2,0.4-1.8c0-1.2-0.5-2.5-1.4-3.4c-0.9-0.7-1.9-1.4-3.2-1.4
		l0,0c-0.2,0-0.4,0-0.5,0c-1.2,0-2.5,0.2-3.7,0.9c-1.1,0.7-1.9,1.8-2.3,3.4c-0.2,0.5-0.7,0.9-1.2,0.9c0,0-0.2,0-0.2-0.2l0,0
		c-0.4,0-0.5-0.2-0.7-0.4C24,12.9,24,12.6,24,12.4s0-0.2,0-0.4c0.5-2.1,1.8-3.5,3.2-4.6C28.8,6.5,30.7,6,32.3,6c0.2,0,0.4,0,0.7,0
		c1.8,0.2,3.5,1.1,4.8,2.3c1.2,1.4,1.9,3.2,1.9,5s-0.5,3-1.2,4.4c-0.9,1.2-1.8,2.3-2.8,3.4c-1.1,1.1-1.9,1.9-2.7,3.2
		c-0.7,1.1-1.2,2.3-1.2,3.9c0,0.4-0.2,0.7-0.4,0.9c-0.2,0.2-0.5,0.4-0.9,0.4v1.6c0.9,0,1.6-0.4,1.9-0.9c0.5-0.5,0.9-1.2,0.9-1.9
		c0-1.2,0.4-2.1,0.9-3.2c0.7-0.9,1.4-1.8,2.5-2.8c1.1-1.1,2.1-2.3,3-3.7c0.9-1.4,1.6-3.2,1.6-5.1c0-2.3-1.1-4.4-2.5-5.8
		C37.4,6.1,35.3,5,33,4.9c-0.2,0-0.5,0-0.7,0c-1.9,0-4.1,0.5-5.8,1.6c-1.8,1.2-3.4,3-3.9,5.5c-0.2,0.2-0.2,0.5-0.2,0.7
		c0,0.5,0.2,1.2,0.5,1.6c0.4,0.5,0.9,0.9,1.4,1.1l0,0c0.4,0,0.5,0,0.7,0c1.2,0,2.3-0.7,2.7-1.9c0.4-1.1,0.9-1.9,1.8-2.3
		c0.7-0.5,1.8-0.9,2.8-0.9c0.2,0,0.2,0,0.4,0l0,0c0.9,0.2,1.8,0.5,2.3,1.1c0.5,0.7,0.9,1.4,0.9,2.3c0,0.5,0,0.9-0.2,1.2
		c-0.2,0.5-0.5,1.1-1.1,1.8c-0.4,0.5-1.1,1.2-1.8,2.1c-1.1,1.1-2.3,2.5-3.4,4.1c-0.9,1.4-1.6,3.4-1.6,5.7l0,0v0.2l0,0
		c0,0.7,0.4,1.4,0.9,1.9c0.4,0.4,1.1,0.7,1.8,0.7V30.2L30.5,30.2z"/>
	<path class="st0" d="M32.9,34.7h-0.7c0,0.4-0.2,0.9-0.5,1.1c-0.2,0.4-0.5,0.4-1.1,0.4c-0.4,0-0.7,0-0.9-0.4
		c-0.4-0.2-0.5-0.7-0.5-1.1s0.2-0.7,0.5-1.1c0.2-0.2,0.5-0.4,0.9-0.4c0.5,0,0.9,0.2,1.1,0.4c0.4,0.4,0.5,0.7,0.5,1.1h1.4
		c0-1.6-1.2-3-3-3c-1.6,0-2.8,1.4-2.8,3s1.2,3,2.8,3c1.8,0,3-1.4,3-3H32.9L32.9,34.7z"/>
	<path class="st0" d="M46.7,41.6v-1.1H11.3c-0.4,0-0.5,0.2-0.9,0.4l-8.3,8.8V13.1c0-3,1.2-5.8,3.2-7.8c1.9-1.9,4.8-3.2,7.8-3.2h33.6
		c3,0,5.7,1.2,7.6,3.2c1.9,1.9,3.2,4.8,3.2,7.8v16.6c0,3-1.2,5.7-3.2,7.6c-1.9,1.9-4.6,3.2-7.6,3.2v2.3c7.1,0,12.9-5.8,12.9-13.1
		V13.1C59.6,5.8,53.8,0,46.7,0H13.1C5.8,0,0,5.8,0,13.1v39.5c0,0.4,0.4,0.7,0.7,0.9c0.4,0.2,0.9,0,1.1-0.2l9.9-10.4h35V41.6
		L46.7,41.6z"/>
	<path class="st0" d="M41.4,52.5H40h0.2v-0.2L40,52.5h0.2v-0.2v0.2h0.2l-0.2-0.2v0.2h0.2h-0.2v0.2l0.2-0.2h-0.2v0.2v-0.2H40l0.2,0.2
		v-0.2H40h2.7c0-1.4-1.1-2.5-2.5-2.5s-2.5,1.1-2.5,2.5s1.1,2.5,2.5,2.5s2.5-1.1,2.5-2.5H41.4L41.4,52.5z"/>
	<path class="st0" d="M58.1,52.5h-1.4h0.2v-0.2l-0.2,0.2h0.2v-0.2v0.2h0.2l-0.2-0.2v0.2h0.2h-0.2v0.2l0.2-0.2h-0.2v0.2v-0.2h-0.2
		l0.2,0.2v-0.2h-0.2h2.7c0-1.4-1.1-2.5-2.5-2.5s-2.5,1.1-2.5,2.5s1.1,2.5,2.5,2.5s2.5-1.1,2.5-2.5H58.1L58.1,52.5z"/>
	<path class="st0" d="M74.7,52.5h-1.4h0.2v-0.2l-0.2,0.2h0.2v-0.2v0.2h0.2l-0.2-0.2v0.2h0.2h-0.2v0.2l0.2-0.2h-0.2v0.2v-0.2h-0.2
		l0.2,0.2v-0.2h-0.2H76c0-1.4-1.1-2.5-2.5-2.5S71,51.1,71,52.5s1.1,2.5,2.5,2.5s2.5-1.1,2.5-2.5H74.7z"/>
	<path class="st0" d="M19.3,50.8l0.2,10.6c0,8.8,7.1,15.9,15.9,15.9H78l12,12.9c0.4,0.4,1.1,0.5,1.6,0.4c0.4-0.4,0.7-0.7,0.7-1.2
		V41.1c0-8.7-7.1-15.9-15.9-15.9h-9.6c-0.7,0-1.4,0.7-1.4,1.4s0.7,1.2,1.4,1.2h9.6c3.7,0,7.1,1.4,9.4,3.9c2.5,2.5,3.9,5.8,3.9,9.4
		V86L79.6,75.2c-0.4-0.4-0.7-0.4-1.1-0.4H35.3c-3.7,0-6.9-1.6-9.4-3.9c-2.5-2.5-3.9-5.8-3.9-9.6l-0.2-10.6c0-0.7-0.5-1.4-1.2-1.4
		S19.3,50,19.3,50.8L19.3,50.8z"/>
</g>
</svg>
