<?xml version="1.0" encoding="utf-8"?>
<!-- Generator: Adobe Illustrator 22.0.1, SVG Export Plug-In . SVG Version: 6.00 Build 0)  -->
<svg version="1.1" id="Шар_1" xmlns="http://www.w3.org/2000/svg" xmlns:xlink="http://www.w3.org/1999/xlink" x="0px" y="0px"
	 viewBox="0 0 283.5 283.5" style="enable-background:new 0 0 283.5 283.5;" xml:space="preserve">
<style type="text/css">
	.st0{fill:#ec0000;}
</style>
<g>
	<path class="st0" d="M274.8,107.6l-3-2.4c-53.5,68.8-109.4,123.3-165.3,165.3c-5.1,3.9-11.4,5.4-18.3,5.4c-6.6,0-13.5-1.5-20.4-4.2
		c-10.2-3.9-20.1-10.2-27.4-16.8c-3.6-3.3-6.3-6.6-8.4-9.6c-1.8-3-2.7-5.7-2.7-7.5c0-0.6,0-1.5,0.3-1.8c0.3-0.6,0.6-1.2,1.2-1.5
		l51.4-51.4c1.8-1.8,4.5-2.7,6.9-2.7s4.8,0.9,6.9,2.7c3.3,3.3,6.9,6.6,9.9,10.8c3,4.2,5.1,9,5.4,15.9c0,1.5,0.9,2.7,2.1,3.3
		c1.2,0.6,2.7,0.6,3.9-0.3c33.1-23.8,62.8-53.2,89-89c0.9-1.2,0.9-2.7,0.3-3.9c-0.6-1.2-1.8-2.1-3.3-2.1c-6.9-0.6-11.7-2.7-15.9-5.4
		c-4.2-3-7.5-6.6-10.8-9.9c-1.8-1.8-2.7-4.5-2.7-6.9s0.9-4.8,2.7-6.9l56.2-56.2c0.9-0.9,1.8-1.5,2.7-1.8c0.9-0.3,1.8-0.6,3-0.6
		c1.5,0,3.3,0.3,5.1,1.2c3.3,1.5,7.2,4.5,11.1,8.7c5.7,6.3,11.1,14.7,15,23.8s6.3,18.6,6.3,26.8c0,6.3-1.5,11.4-4.2,15L274.8,107.6
		l3,2.4c4.2-5.4,5.7-12.3,5.7-19.5c0-7.2-1.5-15-4.2-22.5c-3.9-11.4-10.2-22.5-17.1-31c-3.6-4.2-7.2-7.8-11.1-10.5
		s-8.1-4.2-12.3-4.2c-2.1,0-3.9,0.3-6,1.2c-1.8,0.9-3.6,2.1-5.1,3.6L171.4,83c-3.3,3.3-5.1,7.8-5.1,12.3s1.8,9,5.1,12.3
		c3,3,6.9,7.2,11.7,10.8c5.1,3.6,11.4,6.3,19.8,6.9l0.3-3.9l-3-2.4c-25.9,35.2-55,64-87.2,87.2l2.1,3l3.9-0.3
		c-0.6-8.4-3.3-14.7-6.9-19.8c-3.6-5.1-7.5-8.7-10.8-11.7c-3.3-3.3-7.8-5.1-12.3-5.1s-9,1.8-12.3,5.1l-51.4,51.4
		c-1.2,1.2-2.1,2.7-2.7,4.2c-0.6,1.5-0.9,3.3-0.9,4.8c0,2.7,0.6,5.4,1.8,7.8c2.1,4.5,5.4,9,9.9,13.2c6.6,6.6,15.3,12.6,25,17.1
		c9.6,4.5,20.1,7.5,30.1,7.5c8.1,0,16.2-2.1,22.8-7.2c56.8-42.7,113-97.4,166.9-166.9L274.8,107.6L274.8,107.6z"/>
	<path class="st0" d="M20.7,188.5c-0.6-1.2-1.2-2.1-1.8-3.3c-1.8-3.6-3.3-7.8-4.8-11.7c-1.5-5.1-2.7-10.2-3.6-15.3
		C9.6,151.5,9,144.9,9,138.3C9,104.9,21.6,71.6,47.2,46s58.9-38.2,92.3-38.2c6.6,0,13.2,0.6,19.8,1.5c5.1,0.9,10.5,2.1,15.3,3.6
		c3.9,1.2,7.8,2.7,11.7,4.5c1.8,0.9,4.2,0,5.1-1.8s0.3-4.2-1.8-5.1c-4.2-2.1-8.4-3.6-12.6-5.1c-5.4-1.8-10.8-3-16.5-3.9
		c-6.9-1.2-14.1-1.5-21-1.5c-35.2,0-70.6,13.5-97.7,40.3C14.7,67.3,1.2,102.5,1.2,138c0,7.2,0.6,14.1,1.5,21
		c0.9,5.7,2.1,11.1,3.9,16.5c1.5,4.5,3,8.7,5.1,12.6c0.6,1.2,1.2,2.4,1.8,3.6c0.9,1.8,3.3,2.4,5.1,1.5
		C21,192.7,21.6,190.3,20.7,188.5L20.7,188.5z"/>
	<path class="st0" d="M43.3,175.9c-1.5-3-2.7-6-3.6-9.3c-1.2-3.9-2.1-8.1-3-12.3c-0.9-5.4-1.2-10.5-1.2-15.9
		c0-26.8,10.2-53.5,30.4-73.7c20.4-20.4,46.9-30.4,73.7-30.4c5.4,0,10.8,0.3,15.9,1.2c4.2,0.6,8.4,1.5,12.3,3
		c0.6,0.3,1.5,0.3,2.1,0.6c2.1,0.6,4.2-0.3,4.8-2.4c0.6-2.1-0.3-4.2-2.4-4.8c-0.9-0.3-1.5-0.6-2.4-0.9c-4.5-1.5-9-2.4-13.5-3
		c-5.7-0.9-11.4-1.2-17.1-1.2c-28.6,0-57.4,10.8-79.1,32.8C38.2,81.5,27.4,110,27.4,138.6c0,5.7,0.3,11.4,1.2,17.1
		c0.6,4.5,1.8,9,3,13.5c1.2,3.6,2.4,6.9,4.2,10.5c0.9,1.8,3.3,2.7,5.1,1.8C43.3,180.1,44.2,177.7,43.3,175.9L43.3,175.9z"/>
	<path class="st0" d="M64.6,159.3c-0.9-3-1.8-6-2.1-9.3c-0.6-3.9-0.9-8.1-0.9-12c0-20.1,7.5-40,22.8-55.3
		c15.3-15.3,35.2-22.8,55.3-22.8c3.9,0,8.1,0.3,12,0.9c2.7,0.3,5.7,0.9,8.4,1.8c2.1,0.6,4.2-0.6,4.8-2.7c0.6-2.1-0.6-4.2-2.7-4.8
		c-3-0.9-6-1.5-9-1.8c-4.2-0.6-8.7-0.9-13.2-0.9c-21.9,0-43.9,8.4-60.7,25.3c-16.8,16.8-25.3,38.8-25.3,60.7c0,4.5,0.3,8.7,0.9,13.2
		c0.6,3.6,1.2,6.9,2.4,10.5c0.6,2.1,2.7,3,4.8,2.4C64,163.5,65.2,161.4,64.6,159.3L64.6,159.3z"/>
	<path class="st0" d="M89.3,151.2c-0.6-1.5-0.9-3.3-1.2-5.1c-0.3-2.7-0.6-5.4-0.6-8.1c0-13.2,5.1-26.8,15.3-37
		c10.2-10.2,23.4-15.3,37-15.3c2.7,0,5.4,0.3,8.1,0.6c2.1,0.3,3.9-1.2,4.5-3.3c0.3-2.1-1.2-3.9-3.3-4.5c-3-0.6-6-0.6-9-0.6
		c-15.3,0-30.7,5.7-42.4,17.4C86,107,80.3,122.4,80.3,137.7c0,3,0.3,6,0.6,9c0.3,2.1,0.6,3.9,1.2,6s2.7,3.3,4.8,2.7
		C88.7,155.4,89.9,153.3,89.3,151.2L89.3,151.2z"/>
	<path class="st0" d="M113.6,138.3c0-6.6,2.4-13.2,7.5-18.3c5.1-5.1,11.7-7.5,18.3-7.5c2.1,0,3.9-1.8,3.9-3.9c0-2.1-1.8-3.9-3.9-3.9
		c-8.7,0-17.1,3.3-23.8,9.9c-6.6,6.6-9.9,15.3-9.9,23.8c0,2.1,1.8,3.9,3.9,3.9C111.8,141.9,113.6,140.4,113.6,138.3L113.6,138.3z"/>
</g>
</svg>
