<?xml version="1.0" encoding="utf-8"?>
<!-- Generator: Adobe Illustrator 22.0.1, SVG Export Plug-In . SVG Version: 6.00 Build 0)  -->
<svg version="1.1" id="Layer_1" xmlns="http://www.w3.org/2000/svg" xmlns:xlink="http://www.w3.org/1999/xlink" x="0px" y="0px"
	 viewBox="0 0 393.4 318.7" style="enable-background:new 0 0 393.4 318.7;" xml:space="preserve">
<style type="text/css">
	.st0{fill:#EE7028;}
	.st1{fill:none;stroke:#EE7028;stroke-width:7.0866;stroke-miterlimit:22.9256;}
</style>
<g>
	<path class="st0" d="M376.1,184.1c-4.2-4.1-9.3-9.2-15.5-16.4v-61.4c0-0.7-0.1-16.1-8.5-31.8c-7.9-14.6-24.7-32-59.9-32h-68.1
		l-4.3-8.5c5-3.3,8.4-9,8.4-15.5c0-10.2-8.3-18.5-18.5-18.5c-5.1,0-9.7,2.1-13.1,5.4c-3.3-3.3-8-5.4-13.1-5.4
		C173.3,0,165,8.3,165,18.5c0,6.5,3.3,12.2,8.4,15.5l-4.3,8.5H101c-35.2,0-52,17.4-59.9,32c-8.4,15.6-8.5,31.1-8.5,31.8v61.4
		c-6.2,7.2-11.3,12.3-15.5,16.4C5.4,195.7,0,201,0,224.9c0,17.9,3.3,40.9,29.2,59.9c18.2,13.4,45.5,22.8,81.6,28.3
		c0.7,0.3,38.6,5.6,85.9,5.6s85.2-5.3,85.9-5.6c36.1-5.5,63.4-14.9,81.6-28.3c25.9-19,29.2-42,29.2-59.9
		C393.2,201,387.8,195.7,376.1,184.1L376.1,184.1z M209.6,10.8c4.2,0,7.6,3.4,7.6,7.6c0,4.2-3.4,7.6-7.6,7.6s-7.6-3.4-7.6-7.6
		C202,14.3,205.4,10.8,209.6,10.8L209.6,10.8z M196.5,31.5c3.2,3.2,7.6,5.3,12.5,5.4l2.8,5.5h-30.5l2.8-5.5
		C188.9,36.8,193.3,34.8,196.5,31.5L196.5,31.5z M183.5,10.8c4.2,0,7.6,3.4,7.6,7.6c0,4.2-3.4,7.6-7.6,7.6s-7.6-3.4-7.6-7.6
		C175.9,14.3,179.3,10.8,183.5,10.8L183.5,10.8z M43.4,106.3c0-2.2,0.9-52.9,57.6-52.9h191.2c56.7,0,57.5,50.7,57.6,52.9v45.4
		c-4.5-9.3-6.3-19.2-8.9-33.2l-0.6-3.3c-4.8-25.8-21.2-38-34.1-43.8c-13.7-6.1-26.3-6.1-26.9-6.1H114c-0.5,0-13.1,0.1-26.9,6.1
		C74.2,77.1,57.8,89.3,53,115.2l-0.6,3.3c-2.6,14-4.4,23.9-8.9,33.2L43.4,106.3L43.4,106.3L43.4,106.3z M10.8,224.9
		c0-19.4,2.9-22.3,13.8-33.1c4.6-4.5,10.3-10.2,17.5-18.6c14.4-17,17-31.2,20.9-52.8l0.6-3.3c7.4-40.3,48.5-41,50.2-41
		c45.8,0,110.1,0,165.3,0c0.1,0,10.8,0.1,22.5,5.2c15.3,6.8,24.7,18.8,27.8,35.8l0.6,3.3c4,21.6,6.6,35.8,20.9,52.8
		c7.1,8.4,12.9,14.1,17.5,18.6c10.9,10.8,13.8,13.7,13.8,33.1c0,16.3-2.9,35.1-24.7,51.1c-44.3,32.6-110,31.8-161,31.8
		C137.5,307.8,10.8,301.2,10.8,224.9z"/>
</g>
<path class="st1" d="M144.3,140.2c28.5-28.5,75-28.5,103.5,0s28.5,75,0,103.5s-75,28.5-103.5,0S115.8,168.7,144.3,140.2z"/>
<path class="st0" d="M205.6,168.9c0-7.8,6.4-14.2,14.2-14.2c7.8,0,14.2,6.4,14.2,14.2c0,2.3-1.8,4.1-4.1,4.1c-2.3,0-4.1-1.8-4.1-4.1
	c0-3.3-2.7-6-6-6s-6,2.7-6,6c0,2.3-1.8,4.1-4.1,4.1C207.4,173,205.6,171.1,205.6,168.9L205.6,168.9z M160.4,168.8
	c0-7.8,6.4-14.2,14.2-14.2c7.8,0,14.2,6.4,14.2,14.2c0,2.3-1.8,4.1-4.1,4.1c-2.3,0-4.1-1.8-4.1-4.1c0-3.3-2.7-6-6-6s-6,2.7-6,6
	c0,2.3-1.8,4.1-4.1,4.1C162.2,172.9,160.4,171.1,160.4,168.8L160.4,168.8z M158.5,205.3c-1-2.5,0.1-5.4,2.6-6.4
	c0.6-0.3,1.2-0.4,1.9-0.4c1.9,0,3.7,1.1,4.5,3c4.5,10.9,15.7,17.9,28.6,17.9c12.5,0,23.7-7,28.4-18c1.1-2.5,4-3.6,6.4-2.5
	c2.5,1.1,3.6,4,2.5,6.4c-6.3,14.5-20.9,23.9-37.4,23.9C179.4,229.3,164.6,219.9,158.5,205.3z"/>
</svg>
